<?xml version="1.0" encoding="UTF-8" standalone="no"?>
<svg width="290px" height="23px" viewBox="0 0 290 23" version="1.1" xmlns="http://www.w3.org/2000/svg" xmlns:xlink="http://www.w3.org/1999/xlink">
    <!-- Generator: Sketch 3.6.1 (26313) - http://www.bohemiancoding.com/sketch -->
    <title>nameplate-s</title>
    <desc>Created with Sketch.</desc>
    <defs></defs>
    <g id="Page-1" stroke="none" stroke-width="1" fill="none" fill-rule="evenodd">
        <g id="nameplate-s">
            <path d="M5.20829971,12.3162248 L5.20829971,6.41092219 L3.43319885,7.20319885 C3.43319885,7.20319885 2.97772334,8.21610951 3.05878963,9.69118156 C3.11729107,10.8361383 3.75829971,12.2142651 4.25639769,12.785072 L5.20829971,12.3162248 L5.20829971,12.3162248 Z M10.4082421,0.15795389 C10.8444957,0.19221902 11.5348127,0.412853026 12.0554755,0.866657061 C12.6037176,1.39651297 12.7282421,2.209683 12.5368588,2.94847262 C12.3646974,3.60619597 12.1724784,3.94634006 11.5030548,4.39763689 C10.8261095,4.85979827 10.0029107,4.82051873 10.0029107,4.82051873 L10.0029107,7.66536023 L11.3893948,8.78691643 L10.0029107,9.90345821 L10.0029107,13.7829395 C10.0029107,13.7829395 11.3935735,12.9856484 12.2527089,11.2080403 C12.2527089,11.2080403 12.2886455,11.105245 12.3697118,10.9247262 C12.4457637,11.4027666 12.3997983,12.3697118 11.8624207,13.6074352 C11.4562536,14.5401153 10.7157925,15.4402017 9.78645533,15.9558501 C8.71755043,16.5475504 7.82331412,16.7907493 6.96334294,16.8124784 C6.49867435,16.8250144 6.05239193,16.7748703 5.59106628,16.6770893 C4.04412104,16.3553314 2.63590778,15.4895101 1.67815562,13.9718156 C1.00371758,12.9054179 0.702853026,11.6635159 0.730432277,10.3238329 C0.784755043,7.69878963 2.73536023,5.43896254 4.99017291,4.59236311 C5.26345821,4.49123919 5.37628242,4.42103746 5.75988473,4.3884438 C5.58605187,4.50962536 5.37628242,4.66340058 5.12138329,4.83221902 C4.39680115,5.31861671 3.77334294,6.26216138 3.50757925,6.99259366 L7.88348703,5.04198847 L7.88348703,11.1620749 L4.35835735,12.9254755 C4.75867435,13.4895965 5.97717579,14.3278386 7.02351585,14.4440058 C8.79861671,14.6420749 9.84412104,13.8640058 9.84412104,13.8640058 L9.84412104,9.90345821 L8.4651585,8.78691643 L9.84412104,7.6670317 L9.84412104,4.82051873 C9.09279539,4.73443804 8.18184438,4.48371758 7.64446686,4.3525072 C6.86138329,4.15610951 4.24804035,3.4248415 3.83268012,3.36550432 C3.4248415,3.30282421 2.91587896,3.32371758 2.6074928,3.59533141 C2.36680115,3.81345821 2.20132565,4.15610951 2.20132565,4.50711816 C2.20132565,4.60072046 2.21469741,4.69933718 2.24311239,4.79795389 C2.31832853,5.04616715 2.48798271,5.19242075 2.61752161,5.330317 C2.61752161,5.330317 2.46876081,5.31861671 2.18878963,5.15481268 C1.69821326,4.85979827 1.3229683,4.2781268 1.27783862,3.56106628 C1.22100865,2.63089337 1.60544669,1.78345821 2.37850144,1.21181556 C3.04959654,0.783083573 3.81011527,0.506455331 4.69432277,0.629308357 C5.9821902,0.815677233 7.71216138,1.54610951 9.25659942,1.91801153 C9.85498559,2.05925072 10.317147,2.10521614 10.7366859,1.86285303 C10.9322478,1.72495677 11.2799135,1.3589049 10.9974352,0.87167147 C10.6639769,0.305878963 10.0388473,0.32426513 9.50564841,0.217291066 C9.96279539,0.123688761 10.0664265,0.123688761 10.4082421,0.15795389 L10.4082421,0.15795389 Z" id="Fill-127" fill="#1A1918"></path>
            <path d="M27.4346686,10.7776369 L25.4456196,12.2318156 L25.4456196,7.3937464 L27.4346686,10.7776369 L27.4346686,10.7776369 Z M27.3719885,6.12092219 C27.3719885,6.12092219 26.0398271,6.93576369 25.132219,7.47481268 C24.2354755,8.00383285 23.0244957,8.59887608 23.0244957,8.59887608 L23.0244957,14.235072 L22.2213545,14.8794236 L22.3258213,15.0064553 L23.1139193,14.3729683 L25.5801729,16.5985303 L29.8616427,13.2071182 L29.7580115,13.0825937 L27.3928818,14.9404323 L25.4456196,13.1185303 L25.4456196,12.4382421 L29.3585303,9.56331412 L27.3719885,6.12092219 L27.3719885,6.12092219 Z" id="Fill-128" fill="#1A1918"></path>
            <path d="M16.1480692,18.7196254 C16.7088473,18.8591931 17.7000288,18.9360807 18.8993084,18.3343516 C20.2189337,17.674121 20.8917003,16.2659078 20.8783285,14.8217579 L20.9359942,12.7775504 L20.9359942,8.31305476 L21.7834294,7.66536023 L21.6848127,7.53832853 L20.8524207,8.17181556 L18.9260519,6.02481268 L16.460634,8.14674352 L16.460634,0.947723343 L13.3767723,3.32873199 C13.5121614,3.41982709 13.9509222,3.49587896 13.9659654,4.1151585 L13.9659654,14.1999712 L12.6580403,15.1677522 L12.7466282,15.3014697 L13.3767723,14.8326225 L15.1318156,16.4648127 L17.8955908,14.26683 L17.7978098,14.1356196 L17.1492795,14.6537752 L16.460634,13.9718156 L16.4681556,8.35317003 L17.2721326,7.66536023 L18.4722478,9.15798271 C18.4722478,9.15798271 18.4689049,12.7951009 18.4722478,14.005245 C18.465562,15.2897695 18.4613833,16.901902 17.7827666,17.677464 C17.1066571,18.4563689 16.8367147,18.5115274 16.1480692,18.7196254" id="Fill-129" fill="#1A1918"></path>
            <path d="M35.3306916,18.2123343 C34.2258501,18.0844669 33.7603458,17.4167147 33.7745533,16.8868588 C33.7837464,16.5475504 34.0904611,15.8873199 34.759049,15.7945533 C35.4309798,15.7042939 36.1162824,16.0185303 36.6954467,16.6996542 L39.244438,13.8807205 L39.1224207,13.7662248 L38.4396254,14.5325937 C37.7426225,13.7470029 36.7547839,13.2438905 35.7686167,13.1026513 L35.7686167,4.51463977 L42.3985014,16.583487 C42.3985014,16.583487 42.4636888,16.7172046 42.7344669,16.7172046 C42.9701441,16.722219 42.9116427,16.5274928 42.9116427,16.5274928 L42.9099712,4.38426513 C43.4490202,4.36337176 44.272219,4.05916427 44.6708646,3.659683 C45.9453602,2.34507205 45.4255331,0.919308357 45.2834582,0.77556196 C45.2074063,1.40487032 44.7276945,2.03 43.9245533,2.03334294 C42.8706916,2.03752161 42.229683,1.26028818 42.229683,1.26028818 L39.6806916,4.16363112 L39.8043804,4.2781268 L40.5297983,3.44322767 C41.4223631,4.26475504 42.0775793,4.34331412 42.7503458,4.38426513 L42.7503458,11.4311816 L37.8320461,2.499683 C37.3891066,1.76841499 36.7138329,1.11904899 35.6524496,1.10902017 C34.4306052,1.10149856 33.558098,2.17541787 33.4511239,3.09974063 C33.3332853,4.15025937 33.4670029,4.39512968 33.4670029,4.39512968 C33.4670029,4.39512968 33.6441787,3.22426513 34.3687608,3.24014409 C35.0131124,3.24766571 35.3490778,3.8418732 35.61317,4.28815562 L35.61317,6.87809798 C34.9420749,6.92907781 33.2045821,7.00011527 33.0959366,8.8078098 C33.088415,9.48057637 33.5062824,10.1876081 33.8689914,10.4266282 C34.342853,10.7383573 34.7105764,10.7291643 34.7105764,10.7291643 C34.7105764,10.7291643 34.1464553,10.4266282 34.3119308,9.83576369 C34.4657061,9.30841499 35.5713833,9.21982709 35.61317,9.44129683 L35.61317,13.0892795 C35.077464,13.0825937 33.375072,13.1427666 32.6112104,14.6061383 C32.1440346,15.4794813 32.174121,16.4689914 32.6663689,17.1651585 C33.0691931,17.7342939 33.904928,18.4563689 35.3306916,18.2123343" id="Fill-130" fill="#1A1918"></path>
            <path d="M49.3768876,10.7776369 L47.3903458,12.2318156 L47.3903458,7.3937464 L49.3768876,10.7776369 L49.3768876,10.7776369 Z M49.3234006,6.12092219 C49.3234006,6.12092219 47.9787032,6.93576369 47.0794524,7.47481268 C46.1743516,8.00383285 44.9717291,8.59887608 44.9717291,8.59887608 L44.9717291,14.235072 L44.1635735,14.8794236 L44.272219,15.0064553 L45.0586455,14.3729683 L47.519049,16.5985303 L51.8080403,13.2071182 L51.7060807,13.0825937 L49.3376081,14.9404323 L47.3903458,13.1185303 L47.3903458,12.4382421 L51.3032565,9.56331412 L49.3234006,6.12092219 L49.3234006,6.12092219 Z" id="Fill-131" fill="#1A1918"></path>
            <path d="M55.3114409,16.6428242 L53.2104035,14.8969741 L52.285245,15.5613833 L52.1966571,15.4368588 L53.1326801,14.7507205 L53.1326801,9.87002882 C53.1769741,7.86092219 51.2907205,8.35818444 51.3926801,6.22204611 C51.4386455,5.28936599 52.3470893,4.58233429 52.8067435,4.34832853 C53.2939769,4.09927954 53.8255043,4.09927954 53.8255043,4.09927954 C53.8255043,4.09927954 52.9646974,4.63832853 53.1736311,5.41054755 C53.4928818,6.60397695 55.5295677,6.7084438 55.5680115,8.29383285 L55.5680115,13.8339193 L57.0773487,15.0357061 L57.4701441,14.7239769 L57.4701441,8.73342939 L56.6586455,7.92610951 L58.7496542,6.08582133 L60.6576369,7.76899135 L59.9255331,8.55959654 L59.9255331,13.8698559 L61.7148415,15.3482709 L62.0332565,15.1435159 L62.0332565,8.75097983 L61.2167435,7.98962536 L63.3161095,6.07495677 L65.2667147,7.69043228 L66.0514697,7.00011527 L66.1584438,7.1254755 L64.3983862,8.66573487 L64.3983862,13.8773775 L59.8962824,16.6553602 L57.5929971,14.8326225 L55.3114409,16.6428242" id="Fill-132" fill="#1A1918"></path>
            <path d="M147.431153,10.7776369 L145.442104,12.2318156 L145.442104,7.3937464 L147.431153,10.7776369 L147.431153,10.7776369 Z M147.371816,6.12092219 C147.371816,6.12092219 146.031297,6.93576369 145.129539,7.47481268 C144.23196,8.00383285 143.024323,8.59887608 143.024323,8.59887608 L143.024323,14.235072 L142.217839,14.8794236 L142.326484,15.0064553 L143.112075,14.3729683 L145.572478,16.5985303 L149.858963,13.2071182 L149.757839,13.0825937 L147.389366,14.9404323 L145.442104,13.1185303 L145.442104,12.4382421 L149.354179,9.56331412 L147.371816,6.12092219 L147.371816,6.12092219 Z" id="Fill-133" fill="#1A1918"></path>
            <path d="M127.259856,8.4818732 L127.361816,8.59887608 L128.172478,7.91106628 L129.367579,9.26579251 L129.367579,13.9250144 L128.787579,14.4506916 L130.655447,16.5634294 L132.571787,14.6755043 L131.77951,13.8614986 L131.77951,8.22613833 L132.253372,7.84587896 L133.583026,9.39449568 L133.583026,14.0370029 L133.084092,14.5325937 L134.848329,16.5107781 L136.723718,14.6312104 L136.030058,13.9057925 L136.016686,8.24536023 L136.51562,7.83752161 L137.902939,9.36023055 L137.902939,13.9759942 L137.446628,14.430634 L139.389712,16.5475504 L141.996369,14.1381268 L141.886888,14.0227954 L141.250893,14.6061383 L140.282277,13.5280403 L140.282277,8.25455331 L141.214957,7.54417867 L141.120519,7.41463977 L140.178646,8.13002882 L138.407723,6.13930836 L135.872939,8.14423631 L134.097839,6.21034582 L131.65415,8.12501441 L129.860663,6.21786744 L127.259856,8.4818732" id="Fill-134" fill="#1A1918"></path>
            <path d="M121.955447,8.3356196 L122.060749,8.45596542 L122.73853,7.8684438 L123.809942,9.13123919 L123.809942,14.4557061 L123.060288,15.1134294 L123.163084,15.2337752 L123.952853,14.5576657 L125.673631,16.5475504 L128.158271,14.3278386 L128.051297,14.2033141 L127.323372,14.8493372 L126.292911,13.6642651 L126.292911,8.45847262 L127.157896,7.70798271 L127.053429,7.58262248 L126.229395,8.29383285 L124.420865,6.18610951 L121.955447,8.3356196" id="Fill-135" fill="#1A1918"></path>
            <path d="M122.67,3.92795389 L124.544553,2.21804035 L126.065591,3.90204611 L124.187695,5.60694524 L122.67,3.92795389" id="Fill-136" fill="#1A1918"></path>
            <path d="M114.951153,12.3162248 L114.951153,6.41092219 L113.178559,7.20319885 C113.178559,7.20319885 112.723084,8.21610951 112.806657,9.69118156 C112.865159,10.8361383 113.512017,12.2142651 114.004265,12.785072 L114.951153,12.3162248 L114.951153,12.3162248 Z M120.15611,0.15795389 C120.59487,0.19221902 121.280173,0.412853026 121.799164,0.866657061 C122.349914,1.39651297 122.479452,2.209683 122.281383,2.94847262 C122.109222,3.60619597 121.923689,3.94634006 121.251758,4.39763689 C120.570634,4.85979827 119.75245,4.82051873 119.75245,4.82051873 L119.75245,7.66536023 L121.136427,8.78691643 L119.75245,9.90345821 L119.75245,13.7829395 C119.75245,13.7829395 121.141441,12.9856484 122.002248,11.2080403 C122.002248,11.2080403 122.036513,11.105245 122.116744,10.9247262 C122.191124,11.4027666 122.151844,12.3697118 121.608617,13.6074352 C121.204957,14.5401153 120.466167,15.4402017 119.535994,15.9558501 C117.892104,16.8626225 116.658559,16.9512104 115.337262,16.6770893 C113.786974,16.3553314 112.383775,15.4895101 111.425187,13.9718156 C110.749914,12.9054179 110.447378,11.6635159 110.476628,10.3238329 C110.530115,7.69878963 112.483228,5.43896254 114.741383,4.59236311 C115.008818,4.49123919 115.123314,4.42103746 115.509424,4.3884438 C115.329741,4.50962536 115.127493,4.66340058 114.869251,4.83221902 C114.145504,5.31861671 113.519539,6.26216138 113.255447,6.99259366 L117.63219,5.04198847 L117.63219,11.1620749 L114.102882,12.9254755 C114.503199,13.4895965 115.722536,14.3278386 116.767205,14.4440058 C118.54732,14.6420749 119.590317,13.8640058 119.590317,13.8640058 L119.590317,9.90345821 L118.210519,8.78691643 L119.590317,7.6670317 L119.590317,4.82051873 C118.838991,4.73443804 117.92804,4.48371758 117.394006,4.3525072 C116.606744,4.15610951 113.990893,3.4248415 113.581383,3.36550432 C113.171037,3.30282421 112.661239,3.32371758 112.358703,3.59533141 C112.050317,3.87195965 111.858098,4.36337176 111.990144,4.79795389 C112.064524,5.04616715 112.236686,5.19242075 112.36121,5.330317 C112.36121,5.330317 112.214957,5.31861671 111.941671,5.15481268 C111.445245,4.85979827 111.065821,4.2781268 111.026542,3.56106628 C110.963862,2.63089337 111.35415,1.78345821 112.126369,1.21181556 C112.797464,0.783083573 113.558818,0.506455331 114.44219,0.629308357 C115.72755,0.815677233 117.455014,1.54610951 119.003631,1.91801153 C119.601182,2.05925072 120.067522,2.10521614 120.486225,1.86285303 C120.680115,1.72495677 121.022767,1.3589049 120.742795,0.87167147 C120.414352,0.305878963 119.782536,0.32426513 119.251844,0.217291066 C119.712334,0.123688761 119.811787,0.123688761 120.15611,0.15795389 L120.15611,0.15795389 Z" id="Fill-137" fill="#1A1918"></path>
            <path d="M152.950346,7.21489914 L152.950346,10.0095965 L153.883862,10.8227666 C153.883862,10.8227666 155.910519,9.20144092 156.640951,7.70463977 C156.640951,7.70463977 155.731671,8.93818444 154.511499,8.55959654 C153.483545,8.24536023 152.950346,7.21489914 152.950346,7.21489914 L152.950346,7.21489914 Z M150.690519,14.6312104 C150.690519,14.6312104 151.576398,13.1653314 153.100778,13.4812392 C154.557464,13.7829395 155.064755,15.3265418 155.064755,15.3265418 L155.064755,11.7755043 L154.050173,10.8921326 C152.933631,12.012853 150.937896,13.642536 150.690519,14.6312104 L150.690519,14.6312104 Z M152.141354,17.3272911 C151.856369,17.4167147 150.626167,17.1125072 150.326138,15.8338329 C150.044496,14.5919308 150.904467,13.7470029 152.209049,12.4148415 L150.669625,11.0057925 L150.669625,8.31472622 C150.669625,8.31472622 151.800375,7.74809798 152.692104,7.19066282 C153.577983,6.63489914 154.489769,6.03567723 154.489769,6.03567723 C154.489769,6.03567723 155.153343,6.86974063 155.898818,6.80538905 C157.073026,6.69841499 157.022882,5.77743516 156.984438,5.55847262 C157.187522,5.91783862 157.726571,6.9792219 155.657291,9.35521614 L157.33879,10.7082709 L157.33879,14.2074928 C157.33879,14.2074928 155.390692,15.2178963 153.546225,16.5692795 C153.546225,16.5692795 152.518271,15.2780692 151.619856,15.8981844 C151.016455,16.3127089 151.297262,17.012219 152.141354,17.3272911 L152.141354,17.3272911 Z" id="Fill-138" fill="#1A1918"></path>
            <path d="M84.6624496,13.3508646 L86.8336888,15.3140058 L86.8336888,9.30841499 L84.6624496,7.3051585 L84.6624496,13.3508646 L84.6624496,13.3508646 Z M89.1361383,8.44760807 L89.8916427,7.75144092 L90.0019597,7.87596542 L89.2606628,8.55708934 L89.2606628,14.1180692 C89.2606628,14.1180692 87.8683285,14.8652161 86.8905187,15.4117867 C85.9127089,15.965879 84.8730548,16.6102305 84.8730548,16.6102305 L82.3090202,14.446513 L81.6278963,15.0423919 L81.5209222,14.9178674 L82.2287896,14.2944092 L82.2287896,8.31472622 L82.2388184,8.31472622 C82.2388184,8.31472622 83.4497983,7.76731988 84.4727378,7.19066282 C85.3853602,6.68086455 86.4091354,6.07913545 86.4091354,6.07913545 L89.1361383,8.44760807 L89.1361383,8.44760807 Z" id="Fill-139" fill="#1A1918"></path>
            <path d="M94.1814697,7.88682997 L95.810317,6.21786744 C95.810317,6.21786744 96.0359654,6.4184438 96.2474063,6.52040346 C96.3644092,6.58057637 96.8558213,6.83129683 97.3071182,6.58391931 C97.5544957,6.44769452 97.591268,6.41426513 97.8637176,6.16103746 C97.9138617,7.45726225 97.2904035,8.36487032 96.5181844,8.74512968 C96.198098,8.89389049 95.2670893,9.19391931 94.3026513,8.0121902 L94.3026513,13.9968876 L95.3331124,14.9044957 L96.1930836,14.1957925 L96.2967147,14.3178098 L93.5956196,16.570951 L91.5480692,14.7005764 L90.8117867,15.4009222 L90.684755,15.2697118 L91.8096542,14.2559654 L91.8163401,9.08861671 L90.9546974,7.94951009 L90.215072,8.59887608 L90.1089337,8.4818732 L92.7189337,6.12927954 L94.1814697,7.88682997" id="Fill-140" fill="#1A1918"></path>
            <path d="M101.053718,10.3806628 L104.06487,5.99806916 C104.06487,5.99806916 104.461844,6.46608069 105.153833,6.64827089 C106.097378,6.89314121 106.914726,5.9821902 106.914726,5.9821902 C106.75928,7.15472622 106.163401,8.49190202 104.939885,8.69080692 C103.854265,8.87132565 102.853055,8.0314121 102.853055,8.0314121 L102.66,8.33311239 L106.840346,14.6504323 L107.678588,13.9191643 L107.788069,14.0395101 L104.915648,16.5475504 L101.053718,10.3806628" id="Fill-141" fill="#1A1918"></path>
            <path d="M98.5657349,4.52466859 C98.5657349,3.57945245 98.1779539,2.99443804 97.6673199,3.03622478 L100.955101,0.728760807 L100.955101,13.797147 L101.823429,14.7139481 L102.476974,14.1431412 L102.58562,14.26683 L99.9346686,16.5784726 L98.1420173,14.8894524 L97.4257925,15.5254467 L97.3071182,15.4025937 L98.5657349,14.3102882 L98.5657349,4.52466859" id="Fill-142" fill="#1A1918"></path>
            <path d="M77.4625937,8.20190202 C77.4625937,8.20190202 77.0957061,8.61391931 76.5207205,8.61391931 C75.9540922,8.61391931 75.5729971,8.20190202 75.5729971,8.20190202 L75.5729971,9.9845245 C75.5729971,9.9845245 75.9540922,9.56916427 76.5207205,9.56916427 C77.0957061,9.56916427 77.4625937,9.96613833 77.4625937,9.96613833 L77.4625937,8.20190202 L77.4625937,8.20190202 Z M77.4625937,4.36337176 L76.1914409,3.25017291 L75.5729971,3.73322767 L75.5729971,7.92945245 C75.5729971,7.92945245 75.9540922,8.40916427 76.5265706,8.40916427 C77.099049,8.40916427 77.4625937,7.94951009 77.4625937,7.94951009 L77.4625937,4.36337176 L77.4625937,4.36337176 Z M75.5729971,16.2500288 C75.5729971,16.2500288 76.3477233,16.4547839 76.9051585,15.9976369 C77.5185879,15.4853314 77.4625937,14.7691066 77.4625937,14.7691066 L77.4625937,10.2419308 C77.4625937,10.2419308 77.099049,9.78060519 76.5265706,9.78060519 C75.9540922,9.78060519 75.5729971,10.2544669 75.5729971,10.2544669 L75.5729971,16.2500288 L75.5729971,16.2500288 Z M71.0876081,4.30654179 C71.0876081,3.42902017 70.7265706,2.93677233 70.1440634,2.9192219 C69.3108357,2.90585014 69.1077522,4.08340058 69.1077522,4.08340058 C69.1077522,4.08340058 68.9581556,3.17495677 69.7186744,2.34841499 C70.1482421,1.88708934 70.9430259,1.24440922 72.1924496,1.53942363 C73.4744669,1.85282421 73.8438617,2.84902017 73.8438617,3.73322767 L73.8438617,15.8948415 C73.8438617,15.8948415 74.3319308,15.9508357 74.665389,16.0210375 C75.0506628,16.1071182 75.4183862,16.211585 75.4183862,16.211585 L75.4183862,1.54778098 L75.5729971,1.54778098 L75.5729971,3.52345821 L78.2197695,1.40152738 L80.1461383,3.11729107 L81.0537464,2.33755043 L81.1565418,2.46123919 L80.2138329,3.27357349 L80.2138329,14.5760519 C80.1653602,15.3156772 80.0466859,16.0653314 79.3521902,16.4957349 C77.7977233,17.4192219 75.9256772,16.3553314 74.2575504,16.1104611 C73.0139769,15.9299424 71.0683862,15.6959366 70.5819885,16.832536 C70.4198559,17.2069452 70.4332277,17.784438 70.9956772,18.159683 C72.1239193,18.9135159 77.1450144,16.8910375 78.8699712,17.6950144 C80.4386455,18.4279539 80.4361383,19.5854467 80.1904323,20.3760519 C79.7842651,21.8670029 77.899683,22.1310951 77.899683,22.1310951 C77.899683,22.1310951 78.8198271,21.5937176 78.5582421,20.7120173 C78.4253602,20.2607205 78.120317,20.1353602 77.1341499,20.2481844 C74.9829683,20.4880403 72.4089049,21.5368876 70.6806052,20.8123055 C69.7888761,20.438732 69.1620749,19.3238617 69.2189049,18.2315562 C69.2640346,16.6578674 71.0876081,16.031902 71.0876081,16.031902 L71.0876081,10.2093372 C71.0265994,9.97365994 70.0621614,10.0413545 69.8515562,10.4634006 C69.5272911,11.1127666 70.2476945,11.4102882 70.2476945,11.4102882 C70.2476945,11.4102882 69.6509798,11.4955331 69.1453602,10.9180403 C68.9013256,10.6380692 68.3906916,9.6443804 69.0551009,8.72674352 C69.6008357,7.96789625 70.2552161,7.83752161 71.0876081,7.74391931 L71.0876081,4.30654179 L71.0876081,4.30654179 Z" id="Fill-143" fill="#1A1918"></path>
            <path d="M179.352046,3.37553314 C179.247579,5.30775216 179.107176,7.15221902 178.966772,9.01340058 L180.776138,9.01340058 C180.934092,7.16893372 181.092046,5.30775216 181.179798,3.37553314 L179.352046,3.37553314 L179.352046,3.37553314 Z M178.948386,9.22317003 C178.756167,11.5414986 178.563112,13.8247262 178.316571,16.3193948 L180.160202,16.3193948 C180.389193,13.8422767 180.618184,11.5239481 180.776138,9.22317003 L178.948386,9.22317003 L178.948386,9.22317003 Z M174.839914,3.16576369 L180.880605,3.16576369 C181.389568,2.69106628 181.811614,2.30412104 182.197723,1.88207493 C182.794438,2.34089337 183.391153,2.81308357 184.02464,3.35881844 C183.795648,3.6404611 183.567493,3.92043228 183.304236,4.18368876 C183.05853,7.83752161 182.707522,11.9100576 182.267925,16.3193948 L182.425043,16.3193948 C182.811988,15.7736599 183.251585,15.0357061 183.585879,14.4740922 C184.199308,15.1418444 184.760922,15.7912104 185.288271,16.4422478 L185.288271,16.5291643 L173.013833,16.5291643 L173.013833,16.3193948 L176.192133,16.3193948 C176.420288,13.8589914 176.631729,11.5239481 176.806398,9.22317003 L174.8583,9.22317003 L174.8583,9.01340058 L176.806398,9.01340058 C176.947637,7.13466859 177.07049,5.27348703 177.193343,3.37553314 L174.839914,3.37553314 L174.839914,3.16576369 L174.839914,3.16576369 Z M175.630519,12.9639193 C173.645648,14.5969452 172.012622,15.7377233 171.186916,16.3361095 C171.029798,16.4589625 170.942046,16.599366 170.889395,16.7748703 C170.257579,15.9842651 169.711844,15.1059078 169.149395,14.140634 C169.465303,14.140634 169.958386,14.071268 170.362046,13.9985591 C172.06611,13.7027089 173.786052,13.3333141 175.612133,12.9279827 L175.630519,12.9639193 L175.630519,12.9639193 Z M175.454179,10.4007205 C173.522795,11.5582133 172.15219,12.2100865 171.293055,12.841902 C171.116715,12.9639193 171.012248,13.0867723 170.942046,13.2438905 C170.467349,12.4557925 170.062853,11.7002882 169.711844,10.8227666 C170.186542,10.7333429 170.590202,10.5411239 170.924496,10.1015274 C171.451009,9.43377522 172.188963,8.46933718 172.838329,7.36198847 C172.082824,7.83752161 171.186916,8.36236311 170.503285,8.76769452 C170.168991,8.96074928 169.992651,9.06521614 169.835533,9.31092219 C169.519625,8.6089049 169.237983,7.85423631 168.992277,6.95916427 C169.730231,6.78282421 170.011037,6.50201729 170.326945,5.93956772 C170.765706,5.1673487 171.345706,3.86778098 171.766916,2.58659942 C171.942421,2.04170029 172.031009,1.67230548 172.047723,1.2343804 C173.031383,1.63636888 173.909741,2.02498559 174.927666,2.51639769 C174.506455,2.63925072 174.2783,2.9192219 173.909741,3.34126801 C172.90853,4.51881844 171.555476,5.8359366 170.222478,6.92239193 C171.116715,6.86974063 172.047723,6.80037464 173.013833,6.73017291 L173.293804,6.18610951 C173.610548,5.53590778 173.750951,5.1673487 173.803602,4.79795389 C174.646859,5.1840634 175.612133,5.64204611 176.50804,6.15184438 C176.157032,6.2554755 175.805187,6.46775216 175.472565,6.81792507 C174.207262,8.11665706 172.609337,9.61011527 170.854294,10.8394813 C171.977522,10.7333429 173.768501,10.5578386 175.437464,10.3647839 L175.454179,10.4007205 L175.454179,10.4007205 Z" id="Fill-144" fill="#010503"></path>
            <path d="M194.152075,12.8051297 C192.431297,13.9651297 190.587666,15.0891931 189.112594,15.9675504 C188.760749,16.1773199 188.515043,16.4230259 188.286052,16.8091354 C187.654236,16.0202017 187.268127,15.2295965 186.706513,14.2643228 C187.022421,14.2451009 187.514669,14.194121 187.918329,14.1222478 C189.709308,13.8063401 192.062738,13.2973775 194.13536,12.7717003 L194.152075,12.8051297 L194.152075,12.8051297 Z M193.308818,10.3305187 C191.694179,11.3116715 190.077867,12.192536 189.165245,12.6480115 C188.884438,12.788415 188.637896,13.0349568 188.497493,13.2798271 C188.041182,12.5418732 187.638357,11.7002882 187.268127,10.8227666 C187.672622,10.7692795 188.077118,10.6280403 188.303602,10.3112968 C188.7783,9.67948127 189.55219,8.57463977 190.112968,7.53832853 C189.428501,7.940317 188.655447,8.41585014 188.006081,8.78524496 C187.707723,8.94152738 187.497118,9.08360231 187.391816,9.31092219 C187.075908,8.62645533 186.776715,7.78403458 186.513458,6.86974063 C186.81098,6.80037464 187.111009,6.81792507 187.391816,6.2914121 C187.935879,5.29020173 188.603631,3.71149856 189.024841,2.49801153 C189.217061,1.95478386 189.305648,1.63636888 189.305648,1.2343804 C190.201556,1.60210375 191.18438,2.02498559 192.219856,2.51639769 C191.833746,2.65680115 191.500288,2.98942363 191.18438,3.34126801 C190.007666,4.65838617 188.7783,5.8359366 187.356715,6.93994236 C188.393026,6.86974063 189.393401,6.81792507 190.447262,6.76610951 L190.833372,6.01144092 C191.044813,5.55345821 191.18438,5.1840634 191.201931,4.74530259 L193.696599,6.04570605 C194.099424,4.7645245 194.432046,3.5518732 194.713689,2.27069164 C194.784726,1.91884726 194.854092,1.56616715 194.784726,1.270317 C195.610432,1.58622478 196.593256,1.97233429 197.71732,2.53394813 C197.400576,2.67351585 197.207522,2.8832853 196.961816,3.30533141 C196.627522,3.88449568 196.294063,4.42939481 195.960605,4.97429395 L198.805447,4.97429395 C199.279308,4.53553314 199.73562,4.09677233 200.122565,3.69144092 C200.75438,4.14942363 201.387032,4.62244957 202.071499,5.1673487 C201.860893,5.44982709 201.597637,5.74651297 201.351931,5.99221902 C201.351931,9.39951009 201.158876,13.0174063 200.720115,14.9304035 C200.404207,16.2834582 199.876859,16.7748703 197.418963,17.1434294 C197.172421,15.3516138 196.627522,15.0524207 194.836542,14.0888184 L194.854092,13.9985591 C195.627983,14.1581844 196.786311,14.4047262 197.839337,14.5442939 C198.295648,14.5969452 198.436888,14.4206052 198.523804,14.0344957 C198.876484,12.4892219 199.12219,9.29337176 199.051153,5.1840634 L195.821037,5.1840634 C195.293689,5.99221902 194.749625,6.78282421 194.169625,7.5207781 C194.836542,7.85423631 195.802651,8.34648415 196.470403,9.13708934 C196.909164,9.66276657 197.13732,10.2252161 196.944265,10.9623343 C196.803026,11.5072334 196.364265,11.9802594 195.802651,12.1206628 C195.36389,12.2259654 195.100634,11.9100576 195.083084,11.5072334 C195.029597,10.4349856 194.836542,8.99501441 194.028386,7.69628242 C193.608012,8.22279539 193.169251,8.73259366 192.712104,9.20729107 L192.588415,9.13708934 C192.992911,8.09994236 193.326369,7.15221902 193.626398,6.23792507 C193.343919,6.36161383 193.115764,6.62403458 192.853343,6.88896254 C191.482738,8.37991354 190.217435,9.59256484 188.322824,10.8227666 C189.674207,10.6999135 191.517839,10.5068588 193.292104,10.2945821 L193.308818,10.3305187 L193.308818,10.3305187 Z" id="Fill-145" fill="#010503"></path>
            <path d="M211.621441,7.23913545 C212.569164,7.69628242 213.552824,8.22279539 214.289107,9.01340058 C214.728703,9.48726225 215.062997,10.0848127 214.834841,10.909683 C214.694438,11.4186455 214.237291,11.8574063 213.762594,11.9978098 C213.307118,12.1398847 213.078127,11.751268 213.025476,11.3651585 C212.868357,10.2778674 212.569164,8.83706052 211.58634,7.27507205 L211.621441,7.23913545 L211.621441,7.23913545 Z M207.388444,12.2802882 L208.934553,12.2802882 L208.934553,7.96037464 L207.388444,7.96037464 L207.388444,12.2802882 Z M207.388444,7.74809798 L208.934553,7.74809798 L208.934553,3.72737752 L207.388444,3.72737752 L207.388444,7.74809798 Z M211.234496,12.9472046 C211.234496,13.4728818 211.234496,13.9826801 211.287147,14.5610086 C210.656167,14.8267723 209.77781,15.1418444 208.934553,15.3875504 L208.934553,12.4892219 L207.388444,12.4892219 L207.388444,14.7565706 C206.756628,15.0189914 205.879107,15.3348991 205.03585,15.5814409 C205.106052,14.071268 205.087666,13.2438905 205.087666,12.8243516 L205.087666,4.90409222 C205.087666,4.23634006 205.087666,3.02536023 205.017464,2.19881844 C205.914207,2.63925072 206.756628,3.05878963 207.599049,3.51760807 L208.776599,3.51760807 C209.267176,3.07884726 209.705937,2.65680115 210.093718,2.27069164 C210.690432,2.70945245 211.321412,3.18247839 211.954063,3.71149856 C211.725908,3.99063401 211.480202,4.27227666 211.234496,4.53553314 L211.234496,5.92201729 L215.941354,5.92201729 L215.941354,3.86778098 C215.941354,3.23512968 215.99317,2.49801153 215.871153,1.2343804 C216.836427,1.63636888 217.819251,2.09518732 218.732709,2.53394813 C218.452738,2.70945245 218.241297,2.84902017 218.241297,3.34126801 L218.241297,5.74651297 C218.592305,5.30775216 218.926599,4.85144092 219.224121,4.42939481 C219.733919,4.95757925 220.277983,5.52002882 220.751844,6.04570605 L220.751844,6.13178674 L218.241297,6.13178674 L218.241297,14.5802305 C218.241297,16.2834582 218.030692,16.791585 215.220951,17.3005476 C214.886657,15.4218156 214.430346,15.3516138 212.586715,14.4206052 L212.586715,14.3687896 C213.429971,14.4908069 214.518934,14.5969452 215.343804,14.6504323 C215.800951,14.6846974 215.941354,14.5442939 215.941354,14.140634 L215.941354,6.13178674 L211.234496,6.13178674 L211.234496,12.9472046 L211.234496,12.9472046 Z" id="Fill-146" fill="#010503"></path>
            <path d="M232.162133,8.76769452 C232.373573,9.7689049 232.777233,10.9263977 233.673141,11.9276081 C234.005764,11.0492507 234.252305,9.80317003 234.304121,8.76769452 L232.162133,8.76769452 L232.162133,8.76769452 Z M231.950692,8.76769452 L231.231124,8.76769452 L231.231124,15.0357061 C231.231124,15.3691643 231.214409,15.7210086 231.231124,16.0536311 C231.811124,15.5112392 232.443775,14.7030836 232.916801,13.7729107 C232.073545,12.192536 231.950692,10.7692795 231.950692,8.76769452 L231.950692,8.76769452 Z M229.071585,5.99221902 L227.192853,5.99221902 L227.192853,8.83706052 C227.824669,8.66239193 228.492421,8.45262248 229.071585,8.25873199 L229.071585,5.99221902 L229.071585,5.99221902 Z M234.058415,8.5562536 C234.533112,8.15342939 234.990259,7.69628242 235.375533,7.30850144 C235.973084,7.73054755 236.604063,8.22279539 237.23755,8.74847262 C237.026945,9.03095101 236.79879,9.27665706 236.517983,9.57585014 C236.23634,11.032536 235.798415,12.1031124 235.006974,13.2798271 C235.657176,13.9826801 236.79879,14.6504323 237.957954,15.1059078 L237.939568,15.1752738 C236.692651,15.4577522 235.990634,16.1255043 235.516772,17.4234006 C234.620865,16.7389337 233.953112,15.8438617 233.479251,14.9830548 C232.829049,15.5973199 232.108646,16.072853 231.24951,16.3887608 L231.284611,16.6520173 C230.634409,16.9319885 229.897291,17.2136311 229.018934,17.4936023 C229.089135,15.9842651 229.071585,15.1593948 229.071585,14.736513 L229.071585,8.62645533 C228.47487,9.06521614 227.842219,9.50314121 227.192853,9.92602305 L227.192853,14.2451009 C227.192853,16.3193948 227.088386,16.8617867 224.260259,17.3005476 C224.190893,16.3361095 223.979452,15.7569452 223.575793,15.4051009 C223.241499,15.1059078 222.71415,14.8602017 222.258674,14.6846974 L222.275389,14.5610086 C222.924755,14.6504323 223.698646,14.736513 224.312911,14.7565706 C224.769222,14.7732853 224.892911,14.6504323 224.892911,14.2451009 L224.892911,11.1386744 L224.014553,11.6476369 C223.593343,11.8941787 223.329251,12.1565994 223.065994,12.6120749 C222.48683,11.6300865 222.030519,10.9263977 221.609308,9.96195965 C222.241124,9.89175793 222.89049,9.7856196 223.522305,9.62682997 C223.979452,9.52319885 224.436599,9.41706052 224.892911,9.29337176 L224.892911,5.99221902 L221.872565,5.99221902 L221.872565,5.78244957 L224.892911,5.78244957 L224.892911,3.95636888 C224.892911,3.16576369 224.892911,2.4110951 224.787608,1.3204611 C225.752882,1.72579251 226.770807,2.18210375 227.685101,2.62002882 C227.526311,2.74371758 227.192853,3.02536023 227.192853,3.51760807 L227.192853,5.44982709 L227.983458,4.37674352 C228.351182,4.74530259 228.703026,5.11386167 229.071585,5.52002882 L229.071585,4.23634006 C229.071585,3.5685879 229.124236,2.72700288 229.001383,1.53273775 C229.879741,1.97233429 230.634409,2.3943804 231.442565,2.84902017 L233.743343,2.84902017 C234.252305,2.3943804 234.691066,1.97233429 235.059625,1.60210375 C235.622075,2.00576369 236.307378,2.51639769 236.956744,3.04291066 C236.745303,3.32288184 236.499597,3.6045245 236.23634,3.86778098 C236.217954,4.49959654 236.200403,4.92164265 236.095101,5.55345821 C235.850231,7.0126513 235.271066,7.4681268 233.04049,7.60853026 C232.987839,6.88896254 232.935187,6.41426513 232.584179,6.01144092 C232.355187,5.74651297 231.969078,5.55345821 231.565418,5.37711816 L231.583804,5.30775216 C232.004179,5.39634006 232.724582,5.46570605 233.181729,5.48325648 C233.637205,5.49997118 233.795159,5.36040346 233.866196,4.97429395 C233.970663,4.39512968 233.989049,3.78086455 233.989049,3.05878963 L231.231124,3.05878963 L231.231124,8.5562536 L234.058415,8.5562536 L234.058415,8.5562536 Z" id="Fill-147" fill="#010503"></path>
            <path d="M248.663718,10.6280403 L251.929769,10.6280403 L251.929769,5.74651297 L248.663718,5.74651297 L248.663718,10.6280403 Z M243.044236,10.6280403 L246.398876,10.6280403 L246.398876,5.74651297 L243.044236,5.74651297 L243.044236,10.6280403 Z M248.663718,15.0357061 C248.663718,15.5638905 248.663718,16.072853 248.717205,16.6520173 C248.050288,16.9319885 247.207032,17.2495677 246.346225,17.4936023 C246.416427,15.9842651 246.398876,15.1593948 246.398876,14.736513 L246.398876,10.8394813 L243.044236,10.8394813 L243.044236,11.8231412 C242.413256,12.0863977 241.534899,12.4023055 240.691643,12.6480115 C240.761844,11.1386744 240.74513,10.3112968 240.74513,9.89175793 L240.74513,7.0126513 C240.74513,6.16772334 240.761844,5.32613833 240.674092,4.30654179 C241.55245,4.71103746 242.343055,5.09714697 243.185476,5.53590778 L246.398876,5.53590778 L246.398876,3.86778098 C246.398876,3.07884726 246.398876,2.32167147 246.292738,1.2343804 C247.258847,1.63636888 248.242507,2.09518732 249.15513,2.53394813 C248.997176,2.65680115 248.663718,2.93677233 248.663718,3.42902017 L248.663718,5.53590778 L251.684063,5.53590778 C252.158761,5.08043228 252.597522,4.64167147 253.001182,4.20291066 C253.651383,4.67510086 254.300749,5.20412104 254.950951,5.72896254 C254.740346,6.01144092 254.477089,6.2914121 254.231383,6.55383285 L254.231383,10.137464 C254.231383,10.6639769 254.231383,11.1721037 254.283199,11.751268 C253.651383,12.016196 252.773026,12.3321037 251.929769,12.5786455 L251.929769,10.8394813 L248.663718,10.8394813 L248.663718,15.0357061 L248.663718,15.0357061 Z" id="Fill-148" fill="#010503"></path>
            <path d="M261.988674,1.51602305 C262.813545,1.63636888 264.026196,1.95478386 264.81513,2.4110951 C265.482882,2.79720461 265.904092,3.28861671 265.693487,4.0792219 C265.606571,4.42939481 265.325764,4.81550432 265.025735,5.02694524 C264.622911,5.30775216 264.113112,5.34368876 263.884957,4.6926513 C263.691902,4.1126513 263.411095,3.53432277 263.112738,3.00697406 C262.79683,2.4445245 262.409885,1.98821326 261.936023,1.58622478 L261.988674,1.51602305 L261.988674,1.51602305 Z M261.111153,5.71224784 C261.585014,7.64446686 262.532738,9.52319885 264.078847,10.9456196 C265.025735,9.29337176 265.693487,7.39876081 265.991844,5.71224784 L261.111153,5.71224784 L261.111153,5.71224784 Z M268.169769,7.23913545 C267.678357,8.89138329 266.888588,10.6280403 265.676772,12.2961671 C266.888588,13.2631124 269.698329,14.3512392 272.594986,14.8602017 L272.576599,14.9304035 C271.295418,15.2454755 270.821556,15.8973487 270.206455,17.3540346 C267.748559,16.599366 265.676772,15.3875504 264.342104,13.9826801 C262.428271,15.9132277 260.23196,17.0907781 256.509597,17.4234006 L256.456945,17.3197695 C259.388703,16.2132565 261.585014,14.5969452 263.0417,12.6120749 C261.514813,10.5770605 261.022565,8.20608069 260.917262,5.71224784 L256.755303,5.71224784 L256.755303,5.49997118 L268.906888,5.49997118 C269.434236,4.95757925 269.890548,4.44694524 270.295043,3.95636888 C270.97951,4.48288184 271.611326,5.00855908 272.350115,5.62365994 L272.350115,5.71224784 L267.379164,5.71224784 C267.888963,5.93956772 268.380375,6.20365994 268.941988,6.48446686 C268.661182,6.60731988 268.310173,6.74772334 268.169769,7.23913545 L268.169769,7.23913545 Z" id="Fill-149" fill="#010503"></path>
            <path d="M281.951037,5.76489914 C282.424899,6.11590778 282.986513,6.53795389 283.513862,7.04608069 C283.759568,5.88775216 283.812219,4.58902017 283.653429,3.71149856 C284.479971,4.02657061 285.497061,4.44694524 286.323602,4.83389049 C286.024409,5.1314121 285.867291,5.29020173 285.743602,5.92201729 C285.550548,6.88896254 285.304841,7.89017291 284.988934,8.76769452 C285.269741,9.10115274 285.65585,9.45299712 285.954207,9.92602305 C286.375418,10.5937752 286.63951,11.155389 286.235014,12.069683 C286.042795,12.4892219 285.726888,12.8243516 285.427695,13.0174063 C284.988934,13.2973775 284.619539,13.0867723 284.602824,12.6822767 C284.567723,11.9802594 284.461585,11.2423055 284.321182,10.6464265 C283.653429,12.1031124 282.460836,13.8782133 281.001643,14.8961383 L280.914726,14.8267723 C281.933487,12.7549856 282.68732,10.7333429 283.232219,8.27628242 C282.88121,7.4321902 282.44245,6.62403458 281.898386,5.79916427 L281.951037,5.76489914 L281.951037,5.76489914 Z M277.560922,5.46570605 C278.105821,5.88775216 278.737637,6.41426513 279.299251,7.04608069 C279.422939,6.45020173 279.510692,5.93956772 279.580058,5.39634006 C279.668646,4.71103746 279.668646,4.1126513 279.597608,3.65717579 C280.49268,4.0073487 281.371037,4.39512968 282.162478,4.78123919 C281.933487,5.00855908 281.704496,5.27348703 281.582478,5.86936599 C281.371037,6.88896254 281.020029,7.90688761 280.65147,8.78524496 C280.914726,9.06521614 281.23147,9.41706052 281.45879,9.7856196 C281.863285,10.4349856 282.196744,11.1194524 281.740432,11.9276081 C281.512277,12.3321037 281.213084,12.6480115 280.87879,12.841902 C280.458415,13.0867723 280.089856,12.9814697 280.072305,12.5259942 C280.054755,11.9635447 280.001268,11.2782421 279.895965,10.7876657 C279.26415,12.1206628 278.421729,13.2973775 277.367867,14.1581844 L277.367867,14.9830548 C277.367867,15.5112392 277.367867,16.0202017 277.420519,16.599366 C276.751931,16.8810086 275.875245,17.1969164 275.014438,17.4426225 C275.08464,15.9307781 275.067089,15.1059078 275.067089,14.6846974 L275.067089,4.27227666 C275.067089,3.6045245 275.119741,2.76043228 274.996888,1.56616715 C275.840144,1.95478386 276.665014,2.34089337 277.543372,2.77881844 L286.499107,2.77881844 C286.954582,2.34089337 287.46438,1.83193084 287.816225,1.44331412 C288.44804,1.90213256 289.133343,2.4278098 289.765159,2.97270893 C289.536167,3.27190202 289.291297,3.53432277 289.044755,3.79757925 L289.044755,14.720634 C289.044755,16.2291354 288.676196,16.9846398 286.024409,17.3364841 C285.797089,15.5814409 285.093401,15.3875504 283.653429,14.6144957 L283.671816,14.5275793 C284.531787,14.6328818 285.392594,14.7565706 286.148098,14.7908357 C286.605245,14.8067147 286.743977,14.6846974 286.743977,14.2810375 L286.743977,2.98942363 L277.367867,2.98942363 L277.367867,13.3667435 C278.034784,11.9276081 278.544582,10.5235735 279.000058,8.50276657 C278.544582,7.45057637 278.034784,6.48446686 277.507435,5.49997118 L277.560922,5.46570605 L277.560922,5.46570605 Z" id="Fill-150" fill="#010503"></path>
            <path d="M162.871354,19.4851585 L163.956974,19.4851585 L163.956974,0.136224784 L162.871354,0.136224784 L162.871354,19.4851585 Z" id="Fill-151" fill="#B4B5B4"></path>
        </g>
    </g>
</svg>