<?xml version="1.0" encoding="UTF-8" standalone="no"?>
<svg width="373px" height="90px" viewBox="0 0 373 90" version="1.1" xmlns="http://www.w3.org/2000/svg" xmlns:xlink="http://www.w3.org/1999/xlink">
    <!-- Generator: Sketch 3.6.1 (26313) - http://www.bohemiancoding.com/sketch -->
    <title>nameplate-zh-hans-web</title>
    <desc>Created with Sketch.</desc>
    <defs>
        <path d="M10.9517538,29.1478154 L10.9517538,15.2064 L6.75692308,17.0772923 C6.75692308,17.0772923 5.68135385,19.4721231 5.86966154,22.9513846 C6.01809231,25.6530462 7.52676923,28.9074462 8.69981538,30.2599385 L10.9517538,29.1478154 L10.9517538,29.1478154 Z M23.2227692,0.445292308 C24.2562462,0.529476923 25.8856615,1.04898462 27.1107692,2.11901538 C28.4067692,3.37181538 28.7003077,5.28923077 28.2505846,7.03273846 C27.8418462,8.58572308 27.3876923,9.3888 25.8092308,10.4555077 C24.2086154,11.5499077 22.2723692,11.4524308 22.2723692,11.4524308 L22.2723692,18.1705846 L25.5444923,20.8201846 L22.2723692,23.4531692 L22.2723692,32.6137846 C22.2723692,32.6137846 25.5478154,30.7273846 27.5815385,26.5314462 C27.5815385,26.5314462 27.6646154,26.2944 27.8529231,25.8612923 C28.0368,26.9922462 27.9282462,29.2752 26.6566154,32.1961846 C25.6984615,34.3982769 23.9494154,36.5250462 21.7595077,37.7435077 C19.2339692,39.1380923 17.1204923,39.7140923 15.0900923,39.7639385 C13.9968,39.7938462 12.9378462,39.6753231 11.8545231,39.4460308 C8.19803077,38.6883692 4.87384615,36.6413538 2.61083077,33.0612923 C1.01907692,30.5390769 0.313476923,27.6070154 0.375507692,24.4445538 C0.508430769,18.2481231 5.112,12.9168 10.4322462,10.9163077 C11.0758154,10.6759385 11.3438769,10.5131077 12.2510769,10.4333538 C11.8390154,10.7191385 11.3449846,11.0846769 10.7424,11.4823385 C9.03101538,12.6254769 7.56,14.8574769 6.93415385,16.5821538 L17.2644923,11.9785846 L17.2644923,26.424 L8.94129231,30.5844923 C9.88726154,31.9170462 12.7639385,33.8964923 15.2396308,34.1712 C19.4233846,34.6386462 21.888,32.8043077 21.888,32.8043077 L21.888,23.4531692 L18.6402462,20.8201846 L21.888,18.1750154 L21.888,11.4524308 C20.1156923,11.2519385 17.9667692,10.656 16.7006769,10.3513846 C14.8497231,9.88836923 8.67766154,8.15372308 7.70178462,8.01969231 C6.73698462,7.87458462 5.53735385,7.91778462 4.81070769,8.56246154 C4.24467692,9.07310769 3.85144615,9.88393846 3.85144615,10.7102769 C3.85144615,10.9351385 3.87913846,11.1644308 3.95003077,11.3981538 C4.12615385,11.9874462 4.52603077,12.3330462 4.83507692,12.6553846 C4.83507692,12.6553846 4.48061538,12.6254769 3.82043077,12.2444308 C2.66067692,11.5499077 1.77673846,10.1697231 1.6704,8.47827692 C1.53636923,6.28393846 2.44246154,4.28676923 4.26793846,2.9376 C5.85526154,1.92516923 7.6464,1.26941538 9.73550769,1.55963077 C12.7772308,1.99606154 16.8579692,3.72295385 20.5056,4.60135385 C21.9168,4.93587692 23.0078769,5.04221538 23.9981538,4.46843077 C24.4600615,4.14387692 25.2786462,3.2832 24.6184615,2.13452308 C23.8308923,0.797538462 22.3532308,0.836307692 21.0926769,0.585969231 C22.1726769,0.364430769 22.4185846,0.364430769 23.2227692,0.445292308 L23.2227692,0.445292308 Z" id="path-1"></path>
        <path d="M12.4637538,11.1168 L7.77267692,14.5528615 L7.77267692,3.12369231 L12.4637538,11.1168 L12.4637538,11.1168 Z M12.3252923,0.122953846 C12.3252923,0.122953846 9.1728,2.04812308 7.02941538,3.31753846 C4.91372308,4.57033846 2.05587692,5.97710769 2.05587692,5.97710769 L2.05587692,19.2782769 L0.156184615,20.8013538 L0.406523077,21.1015385 L2.26523077,19.6028308 L8.08393846,24.8599385 L18.1960615,16.8502154 L17.9523692,16.5566769 L12.3673846,20.9442462 L7.77267692,16.6408615 L7.77267692,15.0391385 L17.0086154,8.2512 L12.3252923,0.122953846 L12.3252923,0.122953846 Z" id="path-3"></path>
        <path id="path-5" d="M8.52701538,42.0502154 C9.85403077,42.3836308 12.1956923,42.5608615 15.0247385,41.1463385 C18.1428923,39.5822769 19.7268923,36.2569846 19.6936615,32.8497231 L19.8321231,28.0290462 L19.8321231,17.4804923 L21.8326154,15.9552 L21.6,15.6561231 L19.6338462,17.1492923 L15.0878769,12.0827077 L9.26584615,17.0928 L9.26584615,0.0919384615 L1.98830769,5.71458462 C2.30732308,5.93612308 3.34301538,6.11113846 3.37624615,7.57107692 L3.37624615,31.3820308 L0.288,33.6649846 L0.499569231,33.9784615 L1.98830769,32.8752 L6.13218462,36.7321846 L12.6531692,31.5382154 L12.4205538,31.2336 L10.8908308,32.4553846 L9.26584615,30.8459077 L9.28135385,17.5746462 L11.1810462,15.9552 L14.0167385,19.4832 C14.0167385,19.4832 14.0078769,28.0633846 14.0189538,30.9212308 C13.9979077,33.9552 13.9890462,37.7601231 12.3906462,39.5889231 C10.7889231,41.4321231 10.1508923,41.5617231 8.52701538,42.0502154 L8.52701538,42.0502154 Z"></path>
        <path id="path-7" d="M7.29193846,41.4077538 C4.68332308,41.1053538 3.58449231,39.528 3.61993846,38.2774154 C3.63766154,37.4765538 4.36430769,35.9147077 5.94055385,35.6987077 C7.5312,35.4860308 9.14510769,36.2281846 10.5164308,37.8365538 L16.5345231,31.1837538 L16.2432,30.9134769 L14.6315077,32.7212308 C12.9854769,30.8658462 10.656,29.6795077 8.32873846,29.3405538 L8.32873846,9.06867692 L23.976,37.5629538 C23.976,37.5629538 24.1288615,37.8797538 24.7691077,37.8797538 C25.3229538,37.8875077 25.1867077,37.4244923 25.1867077,37.4244923 L25.1833846,8.76295385 C26.4550154,8.71532308 28.4012308,8.00196923 29.3405538,7.05046154 C32.3501538,3.95003077 31.1250462,0.581538462 30.7883077,0.245907692 C30.6088615,1.73021538 29.4745846,3.20566154 27.5771077,3.21452308 C25.0936615,3.22116923 23.5783385,1.38793846 23.5783385,1.38793846 L17.5624615,8.24233846 L17.8504615,8.50818462 L19.5673846,6.54203077 C21.6742154,8.47827692 23.2183385,8.65993846 24.8078769,8.76295385 L24.8078769,25.3982769 L13.1992615,4.31556923 C12.1524923,2.58646154 10.5596308,1.05230769 8.0496,1.03347692 C5.16738462,1.01132308 3.10707692,3.54904615 2.85563077,5.73009231 C2.57649231,8.21132308 2.89329231,8.78732308 2.89329231,8.78732308 C2.89329231,8.78732308 3.312,6.02252308 5.01895385,6.06129231 C6.53870769,6.08233846 7.33624615,7.48024615 7.95544615,8.53587692 L7.95544615,14.6481231 C6.37587692,14.7666462 2.27187692,14.9383385 2.01489231,19.2062769 C1.99938462,20.7947077 2.98523077,22.4628923 3.8448,23.0289231 C4.95913846,23.7622154 5.82867692,23.7433846 5.82867692,23.7433846 C5.82867692,23.7433846 4.49612308,23.0289231 4.88713846,21.6321231 C5.25156923,20.3881846 7.8624,20.1777231 7.95544615,20.7016615 L7.95544615,29.3117538 C6.69267692,29.2951385 2.67175385,29.4369231 0.870646154,32.8929231 C-0.2304,34.9565538 -0.160615385,37.2904615 1.00356923,38.9331692 C1.95507692,40.2812308 3.92233846,41.9859692 7.29193846,41.4077538 L7.29193846,41.4077538 Z"></path>
        <path d="M12.7584,11.1168 L8.06953846,14.5528615 L8.06953846,3.12369231 L12.7584,11.1168 L12.7584,11.1168 Z M12.6299077,0.122953846 C12.6299077,0.122953846 9.45636923,2.04812308 7.33292308,3.31753846 C5.20393846,4.57033846 2.35827692,5.97710769 2.35827692,5.97710769 L2.35827692,19.2782769 L0.454153846,20.8013538 L0.708923077,21.1015385 L2.5632,19.6028308 L8.37526154,24.8599385 L18.4995692,16.8502154 L18.2580923,16.5566769 L12.6664615,20.9442462 L8.06953846,16.6408615 L8.06953846,15.0391385 L17.3054769,8.2512 L12.6299077,0.122953846 L12.6299077,0.122953846 Z" id="path-9"></path>
        <path id="path-11" d="M9.60036923,29.9497846 L4.64233846,25.8269538 L2.46129231,27.3998769 L2.24307692,27.1008 L4.45403077,25.4824615 L4.45403077,13.9580308 C4.56369231,9.216 0.111876923,10.3923692 0.352246154,5.34683077 C0.459692308,3.14695385 2.60196923,1.47212308 3.68972308,0.924923077 C4.83729231,0.336738462 6.09230769,0.336738462 6.09230769,0.336738462 C6.09230769,0.336738462 4.0608,1.61058462 4.55372308,3.43273846 C5.30916923,6.24738462 10.1165538,6.49218462 10.2051692,10.2428308 L10.2051692,23.3169231 L13.7686154,26.1581538 L14.6979692,25.4204308 L14.6979692,11.2752 L12.7805538,9.36886154 L17.7142154,5.02449231 L22.2214154,9.00110769 L20.4967385,10.8686769 L20.4967385,23.4033231 L24.7181538,26.8892308 L25.4691692,26.4129231 L25.4691692,11.3161846 L23.5428923,9.52061538 L28.4953846,4.99901538 L33.1056,8.8128 L34.9543385,7.18449231 L35.2102154,7.47803077 L31.0519385,11.1168 L31.0519385,23.4188308 L20.4269538,29.9741538 L14.9859692,25.6752 L9.60036923,29.9497846 L9.60036923,29.9497846 Z"></path>
        <path d="M12.7362462,11.1168 L8.04184615,14.5528615 L8.04184615,3.12369231 L12.7362462,11.1168 L12.7362462,11.1168 Z M12.6,0.122953846 C12.6,0.122953846 9.43532308,2.04812308 7.30412308,3.31753846 C5.18843077,4.57033846 2.33612308,5.97710769 2.33612308,5.97710769 L2.33612308,19.2782769 L0.428676923,20.8013538 L0.687876923,21.1015385 L2.54215385,19.6028308 L8.35310769,24.8599385 L18.4696615,16.8502154 L18.2315077,16.5566769 L12.6365538,20.9442462 L8.04184615,16.6408615 L8.04184615,15.0391385 L17.2811077,8.2512 L12.6,0.122953846 L12.6,0.122953846 Z" id="path-13"></path>
        <path id="path-15" d="M0.00886153846,5.69575385 L0.252553846,5.97710769 L2.16775385,4.35212308 L4.98683077,7.54781538 L4.98683077,18.5460923 L3.61993846,19.7900308 L8.02633846,24.7746462 L12.5512615,20.3206154 L10.6836923,18.3954462 L10.6836923,5.09206154 L11.8013538,4.19372308 L14.9372308,7.848 L14.9372308,18.8130462 L13.7608615,19.9827692 L17.9213538,24.6494769 L22.3510154,20.2120615 L20.7160615,18.5006769 L20.6806154,5.14190769 L21.8658462,4.17710769 L25.1346462,7.77267692 L25.1346462,18.6679385 L24.0601846,19.7412923 L28.6438154,24.7380923 L34.7970462,19.0523077 L34.5444923,18.7742769 L33.0424615,20.1544615 L30.7517538,17.6100923 L30.7517538,5.16073846 L32.9560615,3.4848 L32.7334154,3.17907692 L30.5113846,4.86498462 L26.3298462,0.168369231 L20.3449846,4.89932308 L16.1523692,0.338953846 L10.3812923,4.85612308 L6.15101538,0.354461538 L0.00886153846,5.69575385 L0.00886153846,5.69575385 Z"></path>
        <path id="path-17" d="M0.224861538,5.35126154 L0.474092308,5.63704615 L2.07027692,4.25021538 L4.60356923,7.22990769 L4.60356923,19.8011077 L2.83347692,21.3529846 L3.07606154,21.6376615 L4.94363077,20.0459077 L9.00221538,24.7380923 L14.8707692,19.4964923 L14.616,19.2062769 L12.8990769,20.7293538 L10.4665846,17.9324308 L10.4665846,5.64147692 L12.5113846,3.8736 L12.2643692,3.57784615 L10.3170462,5.25821538 L6.04356923,0.2736 L0.224861538,5.35126154 L0.224861538,5.35126154 Z"></path>
        <path id="path-19" d="M0.253661538,4.36541538 L4.67778462,0.323446154 L8.26670769,4.30006154 L3.83372308,8.32430769 L0.253661538,4.36541538 L0.253661538,4.36541538 Z"></path>
        <path d="M10.8299077,29.1478154 L10.8299077,15.2064 L6.64393846,17.0772923 C6.64393846,17.0772923 5.5728,19.4721231 5.76553846,22.9513846 C5.90843077,25.6530462 7.43150769,28.9074462 8.59790769,30.2599385 L10.8299077,29.1478154 L10.8299077,29.1478154 Z M23.1164308,0.445292308 C24.1488,0.529476923 25.7704615,1.04898462 26.9933538,2.11901538 C28.2982154,3.37181538 28.6017231,5.28923077 28.1376,7.03273846 C27.7266462,8.58572308 27.2857846,9.3888 25.7028923,10.4555077 C24.0967385,11.5499077 22.1660308,11.4524308 22.1660308,11.4524308 L22.1660308,18.1705846 L25.4359385,20.8201846 L22.1660308,23.4531692 L22.1660308,32.6137846 C22.1660308,32.6137846 25.4448,30.7273846 27.4729846,26.5314462 C27.4729846,26.5314462 27.5604923,26.2944 27.7454769,25.8612923 C27.9238154,26.9922462 27.8252308,29.2752 26.5480615,32.1961846 C25.5876923,34.3982769 23.8475077,36.5250462 21.6542769,37.7435077 C17.7707077,39.8802462 14.8563692,40.0929231 11.7415385,39.4460308 C8.08061538,38.6883692 4.76418462,36.6413538 2.50892308,33.0612923 C0.911630769,30.5390769 0.198276923,27.6070154 0.265846154,24.4445538 C0.391015385,18.2481231 5.00344615,12.9168 10.3347692,10.9163077 C10.9672615,10.6759385 11.2331077,10.5131077 12.1436308,10.4333538 C11.7216,10.7191385 11.2452923,11.0846769 10.6382769,11.4823385 C8.92356923,12.6254769 7.45144615,14.8574769 6.8256,16.5821538 L17.1559385,11.9785846 L17.1559385,26.424 L8.82498462,30.5844923 C9.77316923,31.9170462 12.6498462,33.8964923 15.1155692,34.1712 C19.3192615,34.6386462 21.7838769,32.8043077 21.7838769,32.8043077 L21.7838769,23.4531692 L18.5283692,20.8201846 L21.7838769,18.1750154 L21.7838769,11.4524308 C20.0082462,11.2519385 17.8582154,10.656 16.5965538,10.3513846 C14.7389538,9.88836923 8.56024615,8.15372308 7.59544615,8.01969231 C6.624,7.87458462 5.42658462,7.91778462 4.70547692,8.56246154 C3.97883077,9.21378462 3.52910769,10.3735385 3.83815385,11.3981538 C4.01427692,11.9874462 4.41747692,12.3330462 4.71433846,12.6553846 C4.71433846,12.6553846 4.36763077,12.6254769 3.72295385,12.2444308 C2.55212308,11.5499077 1.65710769,10.1697231 1.56184615,8.47827692 C1.41895385,6.28393846 2.33390769,4.28676923 4.15827692,2.9376 C5.74006154,1.92516923 7.54006154,1.26941538 9.62916923,1.55963077 C12.6609231,1.99606154 16.7416615,3.72295385 20.3948308,4.60135385 C21.8093538,4.93587692 22.9070769,5.04221538 23.8940308,4.46843077 C24.3559385,4.14387692 25.1612308,3.2832 24.5043692,2.13452308 C23.7267692,0.797538462 22.2380308,0.836307692 20.9841231,0.585969231 C22.0652308,0.364430769 22.3033846,0.364430769 23.1164308,0.445292308 L23.1164308,0.445292308 Z" id="path-21"></path>
        <path d="M6.38473846,4.36763077 L6.38473846,10.9661538 L8.58461538,12.8891077 C8.58461538,12.8891077 13.3698462,9.0576 15.0967385,5.52073846 C15.0967385,5.52073846 12.9467077,8.43507692 10.0689231,7.5456 C7.64086154,6.80344615 6.38473846,4.36763077 6.38473846,4.36763077 L6.38473846,4.36763077 Z M1.04898462,21.8736 C1.04898462,21.8736 3.14584615,18.4187077 6.73809231,19.1630769 C10.1774769,19.8753231 11.376,23.5185231 11.376,23.5185231 L11.376,15.1388308 L8.98006154,13.0497231 C6.34375385,15.6971077 1.63606154,19.5419077 1.04898462,21.8736 L1.04898462,21.8736 Z M4.47729231,28.2428308 C3.79938462,28.4510769 0.900553846,27.7321846 0.186092308,24.7148308 C-0.4752,21.7805538 1.55630769,19.7889231 4.63458462,16.6475077 L0.996923077,13.3177846 L0.996923077,6.96516923 C0.996923077,6.96516923 3.66978462,5.62153846 5.77661538,4.31113846 C7.86793846,2.99741538 10.0190769,1.58289231 10.0190769,1.58289231 C10.0190769,1.58289231 11.5853538,3.55126154 13.3443692,3.40061538 C16.1180308,3.15138462 15.9950769,0.974769231 15.9075692,0.457476923 C16.3883077,1.30818462 17.6577231,3.81156923 12.7772308,9.42313846 L16.7427692,12.6144 L16.7427692,20.8766769 C16.7427692,20.8766769 12.1436308,23.2648615 7.7904,26.4516923 C7.7904,26.4516923 5.36455385,23.4033231 3.24332308,24.8676923 C1.81550769,25.8457846 2.48123077,27.5006769 4.47729231,28.2428308 L4.47729231,28.2428308 Z" id="path-23"></path>
        <path d="M7.45144615,17.1902769 L12.5745231,21.8237538 L12.5745231,7.64972308 L7.45144615,2.91987692 L7.45144615,17.1902769 L7.45144615,17.1902769 Z M18.0099692,5.61821538 L19.7977846,3.97107692 L20.0536615,4.26572308 L18.3035077,5.87298462 L18.3035077,19.0057846 C18.3035077,19.0057846 15.0147692,20.7681231 12.7063385,22.0574769 C10.3990154,23.3645538 7.94436923,24.8876308 7.94436923,24.8876308 L1.88861538,19.7822769 L0.286892308,21.1857231 L0.0321230769,20.8899692 L1.70030769,19.4167385 L1.70030769,5.30363077 L1.72578462,5.30363077 C1.72578462,5.30363077 4.58584615,4.00984615 7.00061538,2.6496 C9.15175385,1.44664615 11.5687385,0.0254769231 11.5687385,0.0254769231 L18.0099692,5.61821538 L18.0099692,5.61821538 Z" id="path-25"></path>
        <path id="path-27" d="M9.97809231,4.2912 L13.824,0.354461538 C13.824,0.354461538 14.3590154,0.827446154 14.8530462,1.06781538 C15.1310769,1.21070769 16.2919385,1.80332308 17.3608615,1.21735385 C17.9457231,0.895015385 18.0254769,0.817476923 18.6701538,0.218215385 C18.7931077,3.27655385 17.3165538,5.42104615 15.4932923,6.31606154 C14.7444923,6.67606154 12.5446154,7.38055385 10.2683077,4.58584615 L10.2683077,18.72 L12.6996923,20.8611692 L14.7334154,19.1874462 L14.9715692,19.4765538 L8.59569231,24.7923692 L3.76061538,20.3748923 L2.02264615,22.0297846 L1.72467692,21.7229538 L4.38092308,19.3292308 L4.39753846,7.13243077 L2.36603077,4.43852308 L0.621415385,5.97710769 L0.368861538,5.69575385 L6.53095385,0.141784615 L9.97809231,4.2912 L9.97809231,4.2912 Z"></path>
        <path id="path-29" d="M7.28196923,0.386584615 C7.28196923,0.386584615 8.21686154,1.49206154 9.85403077,1.92295385 C12.0804923,2.50006154 14.0145231,0.352246154 14.0145231,0.352246154 C13.6401231,3.11926154 12.2377846,6.27729231 9.34670769,6.74473846 C6.78683077,7.16898462 4.42301538,5.18732308 4.42301538,5.18732308 L3.96775385,5.90067692 L13.8339692,20.8179692 L15.8145231,19.0877538 L16.0692923,19.3713231 L9.29021538,25.2919385 L0.1728,10.7368615 L7.28196923,0.386584615 L7.28196923,0.386584615 Z"></path>
        <path id="path-31" d="M3.16246154,9.09193846 C3.16246154,6.86215385 2.24307692,5.48307692 1.04233846,5.57833846 L8.80504615,0.132923077 L8.80504615,30.9865846 L10.8542769,33.1476923 L12.3928615,31.8018462 L12.6476308,32.0920615 L6.39249231,37.5529846 L2.15889231,33.5652923 L0.470769231,35.0651077 L0.191630769,34.7748923 L3.16246154,32.1939692 L3.16246154,9.09193846 L3.16246154,9.09193846 Z"></path>
        <path d="M20.9099077,16.1080615 C20.9099077,16.1080615 20.0448,17.0883692 18.6878769,17.0883692 C17.352,17.0883692 16.4536615,16.1080615 16.4536615,16.1080615 L16.4536615,20.3206154 C16.4536615,20.3206154 17.352,19.3447385 18.6878769,19.3447385 C20.0448,19.3447385 20.9099077,20.2774154 20.9099077,20.2774154 L20.9099077,16.1080615 L20.9099077,16.1080615 Z M20.9099077,7.05378462 L17.9124923,4.42523077 L16.4536615,5.56393846 L16.4536615,15.4722462 C16.4536615,15.4722462 17.352,16.6020923 18.7033846,16.6020923 C20.0536615,16.6020923 20.9099077,15.5154462 20.9099077,15.5154462 L20.9099077,7.05378462 L20.9099077,7.05378462 Z M16.4536615,35.1138462 C16.4536615,35.1138462 18.2758154,35.5990154 19.5928615,34.5190154 C21.0461538,33.3105231 20.9099077,31.6157538 20.9099077,31.6157538 L20.9099077,20.9265231 C20.9099077,20.9265231 20.0536615,19.8398769 18.7033846,19.8398769 C17.352,19.8398769 16.4536615,20.9564308 16.4536615,20.9564308 L16.4536615,35.1138462 L16.4536615,35.1138462 Z M5.86301538,6.91975385 C5.86301538,4.84504615 5.00787692,3.68196923 3.62990769,3.64652308 C1.66596923,3.60775385 1.18855385,6.39027692 1.18855385,6.39027692 C1.18855385,6.39027692 0.8352,4.24578462 2.63298462,2.29513846 C3.63987692,1.20406154 5.51630769,-0.314584615 8.46609231,0.384369231 C11.4967385,1.12652308 12.3684923,3.48036923 12.3684923,5.56393846 L12.3684923,34.2731077 C12.3684923,34.2731077 13.5182769,34.4115692 14.3091692,34.5710769 C15.2174769,34.7748923 16.0848,35.0208 16.0848,35.0208 L16.0848,0.404307692 L16.4536615,0.404307692 L16.4536615,5.07212308 L22.6988308,0.0598153846 L27.2481231,4.10953846 L29.3859692,2.26633846 L29.6329846,2.55876923 L27.4043077,4.47507692 L27.4043077,31.1638154 C27.2924308,32.9051077 27.0132923,34.6796308 25.3716923,35.6898462 C21.7052308,37.8775385 17.2833231,35.3652923 13.3421538,34.7837538 C10.4078769,34.3550769 5.8176,33.8056615 4.66670769,36.4907077 C4.28344615,37.3746462 4.31778462,38.736 5.6448,39.6188308 C8.3088,41.4033231 20.1566769,36.6291692 24.2329846,38.5244308 C27.9371077,40.2524308 27.9260308,42.9873231 27.3544615,44.8537846 C26.3918769,48.3718154 21.9422769,48.9976615 21.9422769,48.9976615 C21.9422769,48.9976615 24.1133538,47.7293538 23.4952615,45.6502154 C23.184,44.5835077 22.4606769,44.2899692 20.1367385,44.5536 C15.0557538,45.1185231 8.98116923,47.5908923 4.89821538,45.8861538 C2.79470769,45.0055385 1.31593846,42.3725538 1.44996923,39.7916308 C1.5552,36.0775385 5.86301538,34.5976615 5.86301538,34.5976615 L5.86301538,20.8512 C5.71790769,20.2973538 3.43827692,20.4546462 2.94203077,21.4515692 C2.17993846,22.9835077 3.88135385,23.6846769 3.88135385,23.6846769 C3.88135385,23.6846769 2.47015385,23.8884923 1.27606154,22.5271385 C0.702276923,21.8636308 -0.506215385,19.5197538 1.06006154,17.3542154 C2.35273846,15.5652923 3.89686154,15.2540308 5.86301538,15.0358154 L5.86301538,6.91975385 L5.86301538,6.91975385 Z" id="path-33"></path>
        <path d="M11.1588923,2.75926154 C11.0470154,4.81735385 10.8974769,6.78350769 10.7479385,8.76627692 L12.6753231,8.76627692 C12.8436923,6.80123077 13.0120615,4.81735385 13.1051077,2.75926154 L11.1588923,2.75926154 L11.1588923,2.75926154 Z M10.7291077,8.99113846 C10.5230769,11.4612923 10.3170462,13.896 10.0545231,16.5522462 L12.0195692,16.5522462 C12.2632615,13.9137231 12.5069538,11.4435692 12.6753231,8.99113846 L10.7291077,8.99113846 L10.7291077,8.99113846 Z M6.34929231,2.5344 L12.7872,2.5344 C13.3299692,2.02818462 13.7785846,1.61833846 14.1917538,1.16861538 C14.8275692,1.65489231 15.4633846,2.16110769 16.1379692,2.74043077 C15.8942769,3.03950769 15.6505846,3.33858462 15.3692308,3.61993846 C15.1078154,7.51347692 14.7334154,11.8534154 14.2648615,16.5522462 L14.4343385,16.5522462 C14.8452923,15.9718154 15.3138462,15.1864615 15.6694154,14.5872 C16.3240615,15.2983385 16.9233231,15.9906462 17.4849231,16.6829538 L17.4849231,16.7771077 L4.40307692,16.7771077 L4.40307692,16.5522462 L7.7904,16.5522462 C8.03298462,13.9325538 8.25895385,11.4435692 8.44615385,8.99113846 L6.36812308,8.99113846 L6.36812308,8.76627692 L8.44615385,8.76627692 C8.59458462,6.76467692 8.72529231,4.77969231 8.85821538,2.75926154 L6.34929231,2.75926154 L6.34929231,2.5344 L6.34929231,2.5344 Z M7.19224615,12.9777231 C5.07655385,14.7179077 3.33636923,15.9352615 2.45686154,16.5699692 C2.28738462,16.7017846 2.19433846,16.8513231 2.13895385,17.0385231 C1.46436923,16.1966769 0.883938462,15.2606769 0.284676923,14.2305231 C0.623630769,14.2305231 1.14646154,14.1574154 1.57735385,14.0820923 C3.39286154,13.7630769 5.2272,13.3709538 7.17341538,12.9400615 L7.19224615,12.9777231 L7.19224615,12.9777231 Z M7.00393846,10.2450462 C4.94584615,11.4801231 3.48590769,12.1735385 2.56873846,12.8470154 C2.38153846,12.9777231 2.26966154,13.1073231 2.19433846,13.2779077 C1.68923077,12.4338462 1.25944615,11.6307692 0.883938462,10.6947692 C1.38904615,10.6017231 1.82104615,10.3945846 2.17661538,9.92603077 C2.73710769,9.21489231 3.52356923,8.18584615 4.21587692,7.00726154 C3.41169231,7.51347692 2.45686154,8.07396923 1.728,8.50486154 C1.37132308,8.71089231 1.18412308,8.82276923 1.01575385,9.08418462 C0.679015385,8.33649231 0.378830769,7.5312 0.117415385,6.57636923 C0.902769231,6.38916923 1.20295385,6.09009231 1.53969231,5.49193846 C2.00713846,4.66781538 2.62523077,3.2832 3.07384615,1.91741538 C3.26215385,1.33698462 3.3552,0.942646154 3.37403077,0.4752 C4.42190769,0.906092308 5.3568,1.31815385 6.44233846,1.84209231 C5.99372308,1.97390769 5.75003077,2.27298462 5.3568,2.7216 C4.2912,3.97550769 2.84898462,5.37895385 1.42781538,6.53981538 C2.38153846,6.48332308 3.37403077,6.40910769 4.40307692,6.33378462 L4.70215385,5.75446154 C5.03889231,5.06104615 5.18953846,4.66781538 5.24492308,4.27569231 C6.14326154,4.68664615 7.17341538,5.17403077 8.12603077,5.71569231 C7.75384615,5.82867692 7.37833846,6.05353846 7.02276923,6.42793846 C5.67581538,7.81255385 3.97218462,9.40430769 2.10129231,10.7124923 C3.29870769,10.6017231 5.20836923,10.4134154 6.98621538,10.2084923 L7.00393846,10.2450462 L7.00393846,10.2450462 Z" id="path-35"></path>
        <path d="M8.65993846,12.8093538 C6.82670769,14.0444308 4.86055385,15.2429538 3.28873846,16.1778462 C2.91433846,16.4016 2.65292308,16.6652308 2.40923077,17.0761846 C1.73575385,16.2343385 1.32369231,15.3924923 0.724430769,14.3623385 C1.06227692,14.3435077 1.58621538,14.2870154 2.016,14.2128 C3.92566154,13.8760615 6.43236923,13.3332923 8.64110769,12.7728 L8.65993846,12.8093538 L8.65993846,12.8093538 Z M7.7616,10.1697231 C6.04024615,11.2187077 4.31778462,12.1547077 3.34523077,12.6409846 C3.04615385,12.7905231 2.78363077,13.0519385 2.63409231,13.3144615 C2.14781538,12.5291077 1.71692308,11.6307692 1.32369231,10.6947692 C1.75458462,10.6382769 2.18547692,10.4887385 2.42806154,10.152 C2.93316923,9.47852308 3.75729231,8.29883077 4.35544615,7.19446154 C3.62547692,7.62535385 2.80246154,8.13046154 2.11015385,8.52369231 C1.79113846,8.69206154 1.56738462,8.8416 1.4544,9.08418462 C1.11876923,8.35532308 0.799753846,7.45698462 0.519507692,6.48332308 C0.837415385,6.40910769 1.15532308,6.42793846 1.4544,5.86523077 C2.03483077,4.79852308 2.74596923,3.11483077 3.19458462,1.82326154 C3.40172308,1.24283077 3.49476923,0.906092308 3.49476923,0.4752 C4.4496,0.868430769 5.49747692,1.31815385 6.60073846,1.84209231 C6.18978462,1.99163077 5.83421538,2.34830769 5.49747692,2.7216 C4.24356923,4.12504615 2.93316923,5.37895385 1.41673846,6.55753846 C2.52110769,6.48332308 3.58781538,6.42793846 4.71101538,6.37144615 L5.12307692,5.56726154 C5.34793846,5.07987692 5.49747692,4.68664615 5.51630769,4.2192 L8.17255385,5.60381538 C8.60455385,4.23692308 8.96012308,2.94646154 9.2592,1.58067692 C9.33341538,1.20627692 9.40984615,0.830769231 9.33341538,0.513969231 C10.2140308,0.850707692 11.2619077,1.26276923 12.4604308,1.86092308 C12.1214769,2.01046154 11.9165538,2.23532308 11.6540308,2.68393846 C11.2995692,3.30203077 10.9428923,3.88246154 10.5884308,4.46289231 L13.6190769,4.46289231 C14.1241846,3.99433846 14.6115692,3.52578462 15.0236308,3.096 C15.6971077,3.58227692 16.3705846,4.08849231 17.1005538,4.66781538 C16.8756923,4.96910769 16.5954462,5.28590769 16.3340308,5.54843077 C16.3340308,9.17833846 16.128,13.0331077 15.6594462,15.0734769 C15.3227077,16.5145846 14.7611077,17.0385231 12.1403077,17.4328615 C11.8788923,15.5232 11.2995692,15.2041846 9.39101538,14.1751385 L9.40984615,14.0820923 C10.2317538,14.2493538 11.4668308,14.5129846 12.5900308,14.6614154 C13.0774154,14.7179077 13.2258462,14.5307077 13.32,14.1186462 C13.6944,12.4726154 13.9569231,9.06646154 13.8816,4.68664615 L10.4377846,4.68664615 C9.87618462,5.54843077 9.29686154,6.38916923 8.67876923,7.17563077 C9.39101538,7.5312 10.4189538,8.05624615 11.1312,8.89809231 C11.5986462,9.45858462 11.8412308,10.0578462 11.6352,10.8443077 C11.4856615,11.4236308 11.0182154,11.9298462 10.4189538,12.0793846 C9.95150769,12.1923692 9.67015385,11.8534154 9.65243077,11.4236308 C9.59593846,10.2827077 9.39101538,8.74855385 8.52923077,7.36393846 C8.07950769,7.92443077 7.61206154,8.4672 7.12578462,8.97230769 L6.99396923,8.89809231 C7.42596923,7.79372308 7.78043077,6.78350769 8.09944615,5.80984615 C7.79926154,5.94055385 7.55556923,6.2208 7.27532308,6.50215385 C5.81538462,8.0928 4.46843077,9.38326154 2.44689231,10.6947692 C3.888,10.5629538 5.85304615,10.3580308 7.74276923,10.1331692 L7.7616,10.1697231 L7.7616,10.1697231 Z" id="path-37"></path>
        <path d="M7.34510769,6.87655385 C8.35421538,7.36393846 9.4032,7.92443077 10.1896615,8.76627692 C10.6571077,9.27138462 11.0115692,9.90830769 10.7689846,10.7889231 C10.6194462,11.3316923 10.1331692,11.7991385 9.62695385,11.9486769 C9.14067692,12.0982154 8.89809231,11.6872615 8.8416,11.2752 C8.67323077,10.1143385 8.35421538,8.57907692 7.30744615,6.91421538 L7.34510769,6.87655385 L7.34510769,6.87655385 Z M2.83458462,12.2477538 L4.48061538,12.2477538 L4.48061538,7.64307692 L2.83458462,7.64307692 L2.83458462,12.2477538 L2.83458462,12.2477538 Z M2.83458462,7.41932308 L4.48061538,7.41932308 L4.48061538,3.13366154 L2.83458462,3.13366154 L2.83458462,7.41932308 L2.83458462,7.41932308 Z M6.93304615,12.9588923 C6.93304615,13.5193846 6.93304615,14.0632615 6.98843077,14.6813538 C6.31495385,14.9616 5.37895385,15.2983385 4.48061538,15.5597538 L4.48061538,12.4726154 L2.83458462,12.4726154 L2.83458462,14.8862769 C2.16,15.1676308 1.224,15.5032615 0.325661538,15.7668923 C0.400984615,14.1574154 0.382153846,13.2779077 0.382153846,12.8281846 L0.382153846,4.38756923 C0.382153846,3.67643077 0.382153846,2.38486154 0.307938462,1.50535385 C1.26276923,1.97390769 2.16,2.42252308 3.05833846,2.9088 L4.31335385,2.9088 C4.83618462,2.44024615 5.30473846,1.99163077 5.71569231,1.58067692 C6.35261538,2.04812308 7.02609231,2.55323077 7.69956923,3.11483077 C7.45698462,3.41501538 7.19446154,3.71409231 6.93304615,3.99433846 L6.93304615,5.47310769 L11.9486769,5.47310769 L11.9486769,3.2832 C11.9486769,2.60972308 12.0040615,1.82326154 11.8733538,0.4752 C12.9024,0.906092308 13.9513846,1.39347692 14.9239385,1.86092308 C14.6248615,2.04812308 14.4,2.19766154 14.4,2.7216 L14.4,5.28590769 C14.7744,4.81735385 15.1299692,4.33107692 15.4478769,3.88246154 C15.9906462,4.44406154 16.5699692,5.04332308 17.0761846,5.60381538 L17.0761846,5.69796923 L14.4,5.69796923 L14.4,14.6990769 C14.4,16.5145846 14.1751385,17.0573538 11.1810462,17.5990154 C10.8254769,15.5974154 10.3380923,15.5232 8.37415385,14.5307077 L8.37415385,14.4753231 C9.27249231,14.6060308 10.4322462,14.7179077 11.3117538,14.7744 C11.7991385,14.8120615 11.9486769,14.6614154 11.9486769,14.2305231 L11.9486769,5.69796923 L6.93304615,5.69796923 L6.93304615,12.9588923 L6.93304615,12.9588923 Z" id="path-39"></path>
        <path d="M11.5188923,7.95101538 C11.7448615,9.01772308 12.1746462,10.2528 13.1294769,11.3206154 C13.4850462,10.3835077 13.7464615,9.05538462 13.8029538,7.95101538 L11.5188923,7.95101538 L11.5188923,7.95101538 Z M11.2951385,7.95101538 L10.5275077,7.95101538 L10.5275077,14.6326154 C10.5275077,14.9881846 10.5086769,15.3614769 10.5275077,15.7170462 C11.1456,15.1377231 11.8190769,14.2759385 12.3241846,13.2856615 C11.4258462,11.6008615 11.2951385,10.0844308 11.2951385,7.95101538 L11.2951385,7.95101538 Z M8.22572308,4.99458462 L6.22301538,4.99458462 L6.22301538,8.02523077 C6.8976,7.83913846 7.60873846,7.61427692 8.22572308,7.40824615 L8.22572308,4.99458462 L8.22572308,4.99458462 Z M13.5415385,7.72726154 C14.0466462,7.29636923 14.5329231,6.81009231 14.9449846,6.39803077 C15.5808,6.84664615 16.2542769,7.37058462 16.9277538,7.93218462 C16.7028923,8.23126154 16.4603077,8.49378462 16.1601231,8.81169231 C15.8610462,10.3646769 15.3936,11.5067077 14.5506462,12.7606154 C15.2440615,13.5094154 16.4603077,14.2205538 17.6953846,14.7068308 L17.6765538,14.7821538 C16.3473231,15.0823385 15.5996308,15.7934769 15.0934154,17.1780923 C14.1396923,16.4470154 13.4285538,15.4921846 12.9234462,14.5761231 C12.2311385,15.2307692 11.4635077,15.7369846 10.5463385,16.0737231 L10.584,16.3539692 C9.89169231,16.6541538 9.10523077,16.9521231 8.16923077,17.2523077 C8.24455385,15.6428308 8.22572308,14.7622154 8.22572308,14.3136 L8.22572308,7.80147692 C7.58990769,8.26892308 6.91643077,8.73636923 6.22301538,9.18609231 L6.22301538,13.7896615 C6.22301538,15.9984 6.11113846,16.5788308 3.09821538,17.0451692 C3.02289231,16.0161231 2.79803077,15.3991385 2.36824615,15.0258462 C2.01267692,14.7068308 1.45107692,14.4454154 0.9648,14.2582154 L0.982523077,14.1275077 C1.67483077,14.2205538 2.49895385,14.3136 3.15470769,14.3324308 C3.63987692,14.3501538 3.77169231,14.2205538 3.77169231,13.7896615 L3.77169231,10.4776615 L2.83569231,11.0204308 C2.38596923,11.2818462 2.10572308,11.5632 1.82547692,12.0494769 C1.20849231,11.0016 0.721107692,10.2528 0.272492308,9.22375385 C0.945969231,9.14953846 1.63827692,9.03655385 2.31175385,8.86818462 C2.79803077,8.75630769 3.28430769,8.64332308 3.77169231,8.51261538 L3.77169231,4.99458462 L0.552738462,4.99458462 L0.552738462,4.76861538 L3.77169231,4.76861538 L3.77169231,2.82350769 C3.77169231,1.98055385 3.77169231,1.17636923 3.65981538,0.0155076923 C4.68886154,0.4464 5.7744,0.932676923 6.74695385,1.40012308 C6.57858462,1.53083077 6.22301538,1.83101538 6.22301538,2.35495385 L6.22301538,4.41526154 L7.06486154,3.27212308 C7.45809231,3.66535385 7.83249231,4.05858462 8.22572308,4.48947692 L8.22572308,3.12258462 C8.22572308,2.41144615 8.28221538,1.51310769 8.1504,0.240369231 C9.0864,0.708923077 9.89169231,1.15753846 10.7534769,1.64381538 L13.2036923,1.64381538 C13.7464615,1.15753846 14.2150154,0.708923077 14.6082462,0.314584615 C15.2064,0.745476923 15.9363692,1.28824615 16.6286769,1.84984615 C16.4038154,2.15003077 16.1424,2.44910769 15.8610462,2.72935385 C15.8422154,3.40393846 15.8233846,3.85255385 15.7115077,4.52603077 C15.4489846,6.07901538 14.832,6.56529231 12.4548923,6.71593846 C12.3995077,5.94830769 12.3441231,5.4432 11.9686154,5.01341538 C11.7249231,4.73206154 11.3128615,4.52603077 10.8830769,4.33883077 L10.9019077,4.26350769 C11.3516308,4.35766154 12.1181538,4.43298462 12.6044308,4.45181538 C13.0918154,4.46953846 13.2590769,4.32 13.3355077,3.90904615 C13.4473846,3.29095385 13.4662154,2.63630769 13.4662154,1.86867692 L10.5275077,1.86867692 L10.5275077,7.72726154 L13.5415385,7.72726154 L13.5415385,7.72726154 Z" id="path-41"></path>
        <path d="M8.62116923,10.4887385 L12.1015385,10.4887385 L12.1015385,5.28590769 L8.62116923,5.28590769 L8.62116923,10.4887385 L8.62116923,10.4887385 Z M2.63187692,10.4887385 L6.2064,10.4887385 L6.2064,5.28590769 L2.63187692,5.28590769 L2.63187692,10.4887385 L2.63187692,10.4887385 Z M8.62116923,15.1864615 C8.62116923,15.7480615 8.62116923,16.2908308 8.67655385,16.9078154 C7.96541538,17.208 7.06707692,17.5447385 6.14990769,17.8061538 C6.22523077,16.1966769 6.2064,15.3160615 6.2064,14.8674462 L6.2064,10.7124923 L2.63187692,10.7124923 L2.63187692,11.7614769 C1.9584,12.0417231 1.02129231,12.3784615 0.124061538,12.6409846 C0.199384615,11.0315077 0.180553846,10.152 0.180553846,9.70338462 L0.180553846,6.63286154 C0.180553846,5.73452308 0.199384615,4.83618462 0.105230769,3.75064615 C1.04012308,4.18153846 1.88307692,4.59249231 2.78141538,5.06104615 L6.2064,5.06104615 L6.2064,3.2832 C6.2064,2.44024615 6.2064,1.63716923 6.09341538,0.4752 C7.12356923,0.906092308 8.17144615,1.39347692 9.144,1.86092308 C8.97673846,1.99163077 8.62116923,2.29181538 8.62116923,2.81575385 L8.62116923,5.06104615 L11.8390154,5.06104615 C12.3452308,4.57476923 12.8126769,4.10621538 13.2424615,3.63876923 C13.9347692,4.14387692 14.6281846,4.70547692 15.3204923,5.26596923 C15.0956308,5.56726154 14.8153846,5.86523077 14.5528615,6.14658462 L14.5528615,9.9648 C14.5528615,10.5252923 14.5528615,11.0680615 14.6093538,11.6872615 C13.9347692,11.9664 12.9998769,12.3042462 12.1015385,12.5656615 L12.1015385,10.7124923 L8.62116923,10.7124923 L8.62116923,15.1864615 L8.62116923,15.1864615 Z" id="path-43"></path>
        <path d="M6.21083077,0.221538462 C7.09033846,0.352246154 8.38190769,0.688984615 9.22486154,1.17636923 C9.93489231,1.58732308 10.3846154,2.11126154 10.1597538,2.95310769 C10.0667077,3.32861538 9.76763077,3.73956923 9.44861538,3.96443077 C9.01883077,4.26350769 8.47606154,4.30227692 8.23236923,3.60886154 C8.02633846,2.99187692 7.72726154,2.37378462 7.40824615,1.81329231 C7.07261538,1.21292308 6.66055385,0.727753846 6.15544615,0.296861538 L6.21083077,0.221538462 L6.21083077,0.221538462 Z M5.27593846,4.6944 C5.78104615,6.7536 6.79126154,8.75630769 8.4384,10.2716308 C9.44861538,8.51261538 10.1597538,6.49107692 10.4776615,4.6944 L5.27593846,4.6944 L5.27593846,4.6944 Z M12.7982769,6.32270769 C12.2754462,8.08172308 11.4324923,9.93489231 10.1409231,11.7127385 C11.4324923,12.7428923 14.4265846,13.9026462 17.5159385,14.4454154 L17.4971077,14.5196308 C16.1302154,14.8563692 15.624,15.5486769 14.9693538,17.1016615 C12.3496615,16.2974769 10.1409231,15.0059077 8.71975385,13.5094154 C6.67938462,15.5686154 4.33883077,16.8225231 0.372184615,17.1780923 L0.315692308,17.0651077 C3.44049231,15.8865231 5.78104615,14.1640615 7.33403077,12.0494769 C5.70572308,9.8784 5.18178462,7.35175385 5.06990769,4.6944 L0.634707692,4.6944 L0.634707692,4.46953846 L13.5858462,4.46953846 C14.1463385,3.89021538 14.6326154,3.34744615 15.0635077,2.82350769 C15.7934769,3.384 16.4669538,3.94670769 17.2534154,4.60135385 L17.2534154,4.6944 L11.9564308,4.6944 C12.5003077,4.93809231 13.0231385,5.21833846 13.6224,5.51852308 C13.3222154,5.64923077 12.9489231,5.79876923 12.7982769,6.32270769 L12.7982769,6.32270769 Z" id="path-45"></path>
        <path d="M7.55224615,4.74978462 C8.05846154,5.12418462 8.65550769,5.57501538 9.21821538,6.11667692 C9.48184615,4.8816 9.53612308,3.49698462 9.36886154,2.56098462 C10.2483692,2.89772308 11.3328,3.34744615 12.2112,3.75950769 C11.8944,4.07630769 11.7260308,4.24467692 11.5964308,4.91926154 C11.3892923,5.94830769 11.1267692,7.01501538 10.7900308,7.95101538 C11.0891077,8.30658462 11.5022769,8.68098462 11.8201846,9.18609231 C12.2688,9.89723077 12.5501538,10.4964923 12.1170462,11.4690462 C11.9132308,11.9187692 11.5764923,12.2743385 11.2574769,12.4792615 C10.7900308,12.7794462 10.3979077,12.5534769 10.3779692,12.1236923 C10.3425231,11.376 10.2295385,10.5895385 10.0811077,9.95372308 C9.36886154,11.5067077 8.09612308,13.3975385 6.54203077,14.4830769 L6.44787692,14.4077538 C7.53452308,12.2001231 8.33870769,10.0478769 8.91913846,7.42707692 C8.54473846,6.52873846 8.07729231,5.66695385 7.49686154,4.78855385 L7.55224615,4.74978462 L7.55224615,4.74978462 Z M2.87335385,4.43298462 C3.45489231,4.8816 4.12836923,5.4432 4.72652308,6.11667692 C4.85723077,5.47975385 4.95249231,4.93809231 5.02670769,4.35766154 C5.12086154,3.62769231 5.12086154,2.99187692 5.04553846,2.5056 C5.99926154,2.87889231 6.93526154,3.29095385 7.77710769,3.70301538 C7.53452308,3.94670769 7.29083077,4.22584615 7.15901538,4.86276923 C6.93526154,5.94830769 6.55975385,7.03384615 6.16763077,7.96984615 C6.44787692,8.26892308 6.78572308,8.64332308 7.02941538,9.03655385 C7.4592,9.72886154 7.81476923,10.4577231 7.32627692,11.3206154 C7.0848,11.7504 6.76689231,12.0871385 6.41132308,12.2931692 C5.9616,12.5534769 5.56836923,12.4427077 5.55064615,11.9553231 C5.53070769,11.3571692 5.47421538,10.6272 5.36233846,10.1032615 C4.68996923,11.5255385 3.79052308,12.7794462 2.66843077,13.6955077 L2.66843077,14.5761231 C2.66843077,15.1377231 2.66843077,15.6804923 2.72381538,16.2974769 C2.01378462,16.5976615 1.07778462,16.9344 0.160615385,17.1969231 C0.234830769,15.5874462 0.217107692,14.7068308 0.217107692,14.2582154 L0.217107692,3.16024615 C0.217107692,2.44910769 0.272492308,1.55076923 0.141784615,0.276923077 C1.04012308,0.688984615 1.91852308,1.10104615 2.85563077,1.56849231 L12.3995077,1.56849231 C12.8868923,1.10104615 13.4285538,0.558276923 13.8051692,0.146215385 C14.4775385,0.6336 15.2075077,1.1952 15.8809846,1.77452308 C15.6372923,2.09243077 15.3758769,2.37378462 15.1144615,2.65403077 L15.1144615,14.2947692 C15.1144615,15.9042462 14.7212308,16.7095385 11.8944,17.0839385 C11.6529231,15.2130462 10.9019077,15.0059077 9.36886154,14.1828923 L9.38769231,14.0898462 C10.3048615,14.2017231 11.2220308,14.3324308 12.0251077,14.3700923 C12.5136,14.3889231 12.6631385,14.2582154 12.6631385,13.8273231 L12.6631385,1.79446154 L2.66843077,1.79446154 L2.66843077,12.8536615 C3.37956923,11.3206154 3.92344615,9.82190769 4.40861538,7.67076923 C3.92344615,6.54646154 3.37956923,5.51852308 2.81796923,4.46953846 L2.87335385,4.43298462 L2.87335385,4.43298462 Z" id="path-47"></path>
        <path d="M9.35667692,7.65193846 C9.78756923,7.20221538 10.1619692,6.77243077 10.5363692,6.34153846 C11.0979692,6.81009231 11.6030769,7.23987692 12.1835077,7.78264615 L12.1835077,7.87569231 L8.86929231,7.87569231 L8.86929231,12.1236923 L10.1054769,12.1236923 C10.3115077,11.8622769 10.5363692,11.5809231 10.7047385,11.3383385 C10.5552,11.2452923 10.4610462,11.0946462 10.4056615,10.8897231 C10.1619692,10.0478769 9.73107692,9.18609231 9.26363077,8.68098462 L9.30129231,8.62449231 C10.0312615,8.69870769 10.9661538,8.82941538 11.6030769,9.29796923 C11.9963077,9.57932308 12.2200615,9.97144615 12.0893538,10.4964923 C12.0328615,10.7579077 11.8279385,11.0204308 11.6584615,11.1699692 L12.8381538,12.2555077 L12.8381538,12.3485538 L3.34855385,12.3485538 L3.34855385,12.1236923 L6.64283077,12.1236923 L6.64283077,7.87569231 L3.93009231,7.87569231 L3.93009231,7.65193846 L6.64283077,7.65193846 L6.64283077,4.18929231 L3.53686154,4.18929231 L3.53686154,3.96443077 L9.67569231,3.96443077 C10.1431385,3.47815385 10.5552,3.01070769 10.9484308,2.56098462 C11.5465846,3.06609231 12.1270154,3.5712 12.6886154,4.09513846 L12.6886154,4.18929231 L8.86929231,4.18929231 L8.86929231,7.65193846 L9.35667692,7.65193846 L9.35667692,7.65193846 Z M2.9376,14.5196308 L13.2125538,14.5196308 L13.2125538,1.7568 L2.9376,1.7568 L2.9376,14.5196308 L2.9376,14.5196308 Z M0.486276923,3.10486154 C0.486276923,2.20541538 0.506215385,1.30707692 0.412061538,0.221538462 C1.32812308,0.6336 2.22646154,1.06449231 3.1248,1.53083077 L12.9489231,1.53083077 C13.4750769,1.00689231 13.9613538,0.502892308 14.3534769,0.0908307692 C15.0657231,0.595938462 15.8145231,1.15753846 16.5245538,1.73796923 C16.2631385,2.03704615 15.9640615,2.33723077 15.6638769,2.61747692 L15.6638769,14.5572923 C15.6638769,15.1188923 15.6638769,15.6605538 15.7203692,16.2797538 C15.0468923,16.5588923 14.1097846,16.8967385 13.2125538,17.1581538 L13.2125538,14.7444923 L2.9376,14.7444923 L2.9376,16.2797538 C2.26412308,16.5588923 1.32812308,16.8967385 0.430892308,17.1581538 C0.506215385,15.5486769 0.486276923,14.6702769 0.486276923,14.2205538 L0.486276923,3.10486154 L0.486276923,3.10486154 Z" id="path-49"></path>
        <path d="M12.2078769,8.51261538 C13.4628923,8.94350769 14.9394462,10.2904615 15.6516923,11.4502154 C16.0449231,12.0871385 16.3251692,12.7982769 15.8577231,13.6955077 C15.7081846,13.9768615 15.408,14.3136 15.1465846,14.4830769 C14.5107692,14.8940308 13.9657846,14.5572923 13.8915692,13.9591385 C13.6855385,12.1801846 13.3687385,10.4776615 12.1702154,8.55027692 L12.2078769,8.51261538 L12.2078769,8.51261538 Z M6.63064615,2.31729231 L11.7581538,2.31729231 C12.3197538,1.70030769 12.8813538,1.04455385 13.3310769,0.484061538 C14.0787692,1.10104615 14.8464,1.7568 15.6140308,2.44910769 L15.6140308,2.54215385 L6.63064615,2.54215385 L6.63064615,2.31729231 L6.63064615,2.31729231 Z M2.53218462,11.0381538 C2.88775385,11.0769231 3.29981538,11.1134769 3.61772308,11.1134769 C4.06744615,11.1134769 4.25575385,10.9827692 4.25575385,10.4964923 C4.25575385,9.14953846 3.99101538,7.80147692 3.03729231,6.34153846 C3.43052308,4.67556923 3.7296,3.1968 3.95335385,1.68147692 L2.53218462,1.68147692 L2.53218462,11.0381538 L2.53218462,11.0381538 Z M9.53169231,6.39803077 L4.90929231,6.39803077 L4.90929231,6.17427692 L12.6,6.17427692 C13.1627077,5.53624615 13.7243077,4.90043077 14.1729231,4.33883077 C14.8840615,4.93809231 15.7081846,5.6304 16.4569846,6.30387692 L16.4569846,6.39803077 L11.9841231,6.39803077 L11.9841231,14.0333538 C11.9841231,15.8477538 11.4590769,16.3916308 8.67101538,16.9144615 C8.40849231,15.2130462 7.92221538,14.5960615 6.36923077,13.9968 C5.93833846,14.4631385 5.43323077,14.9316923 4.83286154,15.3437538 L4.7232,15.2684308 C5.15187692,14.2947692 5.63926154,13.0596923 5.93833846,12.1436308 C5.35901538,12.9300923 4.7232,13.2280615 3.50473846,13.3598769 C3.43052308,11.9187692 3.24443077,11.6385231 2.53218462,11.1134769 L2.53218462,13.0419692 C2.53218462,14.0333538 2.53218462,15.1554462 2.58756923,16.1667692 C1.85981538,16.5035077 0.848492308,16.8225231 0.00553846154,17.0451692 C0.0620307692,15.6605538 0.0797538462,14.4265846 0.0797538462,13.0785231 L0.0797538462,2.93538462 C0.0797538462,2.16775385 0.117415385,1.28824615 0.00553846154,0.128492308 C0.886153846,0.520615385 1.82104615,0.969230769 2.75704615,1.45661538 L3.71187692,1.45661538 C4.27347692,0.932676923 4.70326154,0.502892308 5.11421538,0.0908307692 C5.73230769,0.558276923 6.42572308,1.08332308 7.09809231,1.66264615 C6.80012308,1.79446154 6.57415385,1.92516923 6.3504,2.26190769 C5.48972308,3.53464615 4.44184615,4.90043077 3.26215385,6.17427692 C5.11421538,7.10806154 6.16209231,8.81169231 6.18092308,11.2076308 C6.3504,10.5707077 6.49883077,9.95372308 6.57415385,9.35446154 C6.65058462,8.71753846 6.61181538,8.41846154 6.53649231,8.02523077 C7.45366154,8.32541538 8.40849231,8.66104615 9.3456,9.03655385 C8.97009231,9.22375385 8.74633846,9.504 8.61563077,9.89723077 C8.14707692,11.2452923 7.4736,12.7052308 6.44344615,13.9026462 C7.28529231,13.9968 8.12824615,14.0710154 8.89476923,14.1075692 C9.38215385,14.1275077 9.53169231,13.9968 9.53169231,13.5648 L9.53169231,6.39803077 L9.53169231,6.39803077 Z" id="path-51"></path>
        <path d="M13.8649846,8.86043077 C13.9015385,12.7163077 15.2296615,14.6614154 17.4018462,16.1966769 C16.3705846,16.3273846 15.5486769,16.5899077 14.7821538,17.9556923 C13.3964308,15.8976 13.4894769,13.3144615 13.5448615,10.9185231 C13.0032,13.9702154 11.2619077,16.7206154 7.68849231,17.9933538 L7.57550769,17.8626462 C9.39212308,16.3085538 10.5142154,14.6990769 11.1312,12.3419077 C10.944,12.6587077 10.6836923,12.8846769 10.4953846,12.9965538 C9.91495385,13.3521231 9.40984615,12.9965538 9.46633846,12.4338462 C9.54055385,11.7792 9.67126154,10.5252923 9.44750769,9.36553846 C8.80947692,13.0519385 7.50018462,15.9718154 3.34633846,17.8249846 L3.25218462,17.6931692 C5.77883077,15.4478769 6.84553846,12.9777231 7.27643077,9.23483077 C7.68849231,5.71569231 7.50018462,2.23532308 7.23876923,0.682338462 C8.15593846,1.07446154 9.26030769,1.52307692 10.2328615,2.01046154 C10.0633846,2.12233846 9.93378462,2.19766154 9.8208,2.40369231 C9.72775385,2.57316923 9.70892308,2.77809231 9.70892308,3.05944615 C9.70892308,4.20036923 9.78313846,6.46449231 9.54055385,8.67323077 C10.3092923,9.34781538 11.0370462,10.1331692 11.3549538,11.2552615 C11.6939077,9.72110769 11.8423385,8.13046154 11.8988308,6.44566154 C11.9918769,3.91901538 11.8046769,1.84209231 11.5809231,0.663507692 C12.6465231,1.07446154 13.6955077,1.50535385 14.7444923,1.99163077 C14.5739077,2.10461538 14.4432,2.17883077 14.3313231,2.38486154 C14.2382769,2.55323077 14.2205538,2.75926154 14.2205538,3.03950769 C14.2205538,5.04332308 14.1264,6.87655385 13.8649846,8.86043077 L13.8649846,8.86043077 Z M6.11556923,13.0519385 C4.93698462,14.2692923 3.60775385,15.4102154 2.31618462,16.4215385 C2.11015385,16.5699692 2.03593846,16.7771077 1.96172308,16.9643077 C1.30596923,16.0659692 0.782030769,15.2606769 0.2016,14.2128 C0.501784615,14.2305231 0.931569231,14.2128 1.40012308,14.1186462 C2.84123077,13.8395077 4.50498462,13.4451692 6.09673846,13.0153846 L6.11556923,13.0519385 L6.11556923,13.0519385 Z M6.71483077,10.0578462 C5.16184615,11.1622154 3.73956923,12.0228923 2.27852308,12.8281846 C2.09243077,12.9400615 1.97944615,13.0718769 1.92295385,13.2779077 C1.45550769,12.4726154 1.00578462,11.5554462 0.632492308,10.6947692 C1.06227692,10.5817846 1.45550769,10.4322462 1.79224615,9.94596923 C2.24086154,9.27138462 2.80356923,8.33649231 3.34633846,7.344 C2.8224,7.7184 2.24086154,8.13046154 1.70030769,8.50486154 C1.36246154,8.74855385 1.13649231,8.82276923 0.949292308,9.08418462 C0.557169231,8.26116923 0.278030769,7.51347692 0.0332307692,6.55753846 C0.464123077,6.44566154 0.782030769,6.18424615 1.00578462,5.75446154 C1.45550769,4.87384615 2.2032,3.13366154 2.59864615,1.67372308 C2.74707692,1.0944 2.84123077,0.756553846 2.84123077,0.288 C3.75950769,0.663507692 4.86166154,1.13095385 5.91064615,1.65489231 C5.51630769,1.82326154 5.18178462,2.06695385 4.824,2.51667692 C3.45821538,4.23692308 2.29735385,5.45427692 0.856246154,6.55753846 C1.92295385,6.50215385 2.87889231,6.44566154 3.81489231,6.38916923 L4.43076923,5.11753846 C4.67446154,4.57476923 4.74978462,4.33107692 4.80516923,3.95778462 C5.66584615,4.36984615 6.54535385,4.79852308 7.51901538,5.32246154 C7.10806154,5.43544615 6.75249231,5.69796923 6.41575385,6.09009231 C5.12529231,7.58769231 3.55015385,9.17833846 1.64381538,10.7124923 C3.08381538,10.5452308 4.86166154,10.3015385 6.67716923,10.0212923 L6.71483077,10.0578462 L6.71483077,10.0578462 Z" id="path-53"></path>
        <path d="M12.5545846,2.31064615 C12.4227692,2.77809231 12.2544,3.22670769 12.0683077,3.67643077 L13.7719385,3.67643077 C14.2759385,3.11483077 14.7821538,2.49673846 15.1742769,2.02818462 C15.8112,2.5344 16.5588923,3.15138462 17.2711385,3.80713846 L17.2711385,3.90129231 L11.9752615,3.90129231 C11.8999385,4.08849231 11.8257231,4.27569231 11.7315692,4.46289231 C12.6110769,4.53710769 13.5648,4.64898462 14.5196308,4.91150769 C15.2119385,5.09870769 15.9607385,5.60381538 15.9806769,6.33378462 C15.9984,6.72812308 15.8112,7.11913846 15.5475692,7.40049231 C15.1000615,7.88676923 14.5949538,7.81255385 14.2936615,7.32627692 C13.5282462,6.05353846 12.6675692,5.11753846 11.6551385,4.61243077 C11.0027077,5.90289231 10.1586462,7.02609231 8.86818462,7.94326154 L8.77403077,7.88676923 C9.65464615,5.45427692 10.0279385,3.69526154 10.2140308,1.95396923 C10.2694154,1.39347692 10.3081846,0.850707692 10.2516923,0.438646154 C11.2995692,0.737723077 12.2544,1.03790769 13.3211077,1.43003077 C12.9467077,1.63716923 12.6675692,1.91741538 12.5545846,2.31064615 L12.5545846,2.31064615 Z M5.68689231,3.54572308 C5.68689231,2.77809231 5.72344615,1.89858462 5.61156923,0.737723077 C6.52873846,1.13095385 7.68738462,1.63716923 8.66104615,2.12233846 C8.49378462,2.23532308 8.36307692,2.31064615 8.2512,2.51667692 C8.15704615,2.68393846 8.13932308,2.89107692 8.13932308,3.17132308 L8.13932308,5.02338462 C8.13932308,5.58609231 8.13932308,6.12886154 8.19470769,6.74584615 C7.48356923,7.04492308 6.54646154,7.38166154 5.6304,7.64307692 C5.70461538,6.0336 5.68689231,5.1552 5.68689231,4.70547692 L5.68689231,3.54572308 L5.68689231,3.54572308 Z M14.2759385,11.5000615 C14.2759385,12.0605538 14.2759385,12.6033231 14.3313231,13.2203077 C13.6578462,13.5016615 12.7229538,13.8395077 11.8257231,14.1009231 L11.8257231,8.52369231 L5.74338462,8.52369231 L5.74338462,13.5193846 C5.06769231,13.8007385 4.1328,14.1385846 3.23446154,14.4 C3.30867692,12.7905231 3.29095385,11.9110154 3.29095385,11.4612923 L3.29095385,9.9648 C3.29095385,9.32787692 3.27101538,8.42953846 3.21563077,7.47470769 C2.74818462,7.64307692 2.26190769,7.79372308 1.77563077,7.92443077 C1.85095385,6.31495385 1.83101538,5.43544615 1.83101538,4.98683077 L1.83101538,3.54572308 C1.83101538,2.87113846 1.8864,2.08467692 1.7568,0.737723077 C2.78584615,1.16861538 3.83372308,1.65489231 4.80738462,2.12233846 C4.63790769,2.25415385 4.28233846,2.55323077 4.28233846,3.07716923 L4.28233846,5.30363077 C4.28233846,5.86523077 4.28233846,6.40910769 4.33883077,7.02609231 L3.87027692,7.23212308 C4.56258462,7.56886154 5.27483077,7.92443077 5.96713846,8.29883077 L11.6551385,8.29883077 C12.1613538,7.85021538 12.6675692,7.36393846 13.0596923,6.97070769 C13.6955077,7.45698462 14.3889231,7.98092308 15.0435692,8.50486154 C14.8198154,8.76627692 14.5384615,9.10412308 14.2759385,9.38326154 L14.2759385,11.5000615 L14.2759385,11.5000615 Z M10.1952,9.81415385 C9.85846154,10.0766769 9.37329231,10.3380923 9.22486154,10.8819692 C9.93489231,11.1810462 10.6460308,11.4612923 11.3372308,11.7792 C11.0027077,11.9863385 10.8144,12.2665846 10.8144,12.8281846 L10.8144,14.4 C10.8144,15.0369231 11.0204308,15.2241231 11.6551385,15.2606769 C12.4604308,15.2983385 13.3598769,15.2983385 14.1064615,15.2041846 C14.8198154,15.1111385 15.1942154,14.6813538 15.4910769,14.0256 C15.7558154,13.4451692 15.9984,12.7905231 16.2420923,12.0982154 L16.3152,12.0982154 L16.3152,13.7442462 C16.3152,14.7555692 17.0086154,14.8486154 17.5702154,15.0923077 C17.3276308,16.6652308 16.5024,17.208 15.0059077,17.3940923 C13.9403077,17.5248 12.6864,17.5447385 11.3937231,17.4882462 C8.81169231,17.3763692 8.58683077,16.6275692 8.58683077,14.4 L8.58683077,13.5193846 C7.25870769,16.7771077 4.86387692,17.6754462 0.540553846,17.7684923 L0.502892308,17.6189538 C2.99187692,17.0008615 4.97464615,16.0094769 6.0048,14.2305231 C6.73366154,12.9777231 6.99729231,11.5554462 7.09033846,10.3203692 C7.14572308,9.55273846 6.9408,9.10412308 6.9408,9.10412308 L10.1952,9.81415385 L10.1952,9.81415385 Z" id="path-55"></path>
    </defs>
    <g id="Page-1" stroke="none" stroke-width="1" fill="none" fill-rule="evenodd">
        <g id="nameplate-zh-hans" transform="translate(1.000000, 0.000000)">
            <g id="The-New-York-Times" transform="translate(0.000000, 37.000000)">
                <g id="Group-3" transform="translate(0.000000, 0.107692)">
                    <mask id="mask-2" fill="white">
                        <use xlink:href="#path-1"></use>
                    </mask>
                    <g id="Clip-2"></g>
                    <path d="M-5.16672,-5.14262769 L33.9864923,-5.14262769 L33.9864923,45.3069415 L-5.16672,45.3069415 L-5.16672,-5.14262769 Z" id="Fill-1" fill="#1A1918" mask="url(#mask-2)"></path>
                </g>
                <g id="Group-6" transform="translate(50.953846, 14.507692)">
                    <mask id="mask-4" fill="white">
                        <use xlink:href="#path-3"></use>
                    </mask>
                    <g id="Clip-5"></g>
                    <path d="M-5.38227692,-5.41550769 L23.7345231,-5.41550769 L23.7345231,30.3984 L-5.38227692,30.3984 L-5.38227692,-5.41550769 Z" id="Fill-4" fill="#1A1918" mask="url(#mask-4)"></path>
                </g>
                <g id="Group-9" transform="translate(28.246154, 2.323077)">
                    <mask id="mask-6" fill="white">
                        <use xlink:href="#path-5"></use>
                    </mask>
                    <g id="Clip-8"></g>
                    <path d="M-5.25046154,-5.44652308 L27.3710769,-5.44652308 L27.3710769,47.8224 L-5.25046154,47.8224 L-5.25046154,-5.44652308 Z" id="Fill-7" fill="#1A1918" mask="url(#mask-6)"></path>
                </g>
                <g id="Group-12" transform="translate(74.769231, 1.769231)">
                    <mask id="mask-8" fill="white">
                        <use xlink:href="#path-7"></use>
                    </mask>
                    <g id="Clip-11"></g>
                    <path d="M-5.45250462,-5.29255385 L36.8591815,-5.29255385 L36.8591815,47.06208 L-5.45250462,47.06208 L-5.45250462,-5.29255385 Z" id="Fill-10" fill="#1A1918" mask="url(#mask-8)"></path>
                </g>
                <g id="Group-15" transform="translate(102.461538, 14.507692)">
                    <mask id="mask-10" fill="white">
                        <use xlink:href="#path-9"></use>
                    </mask>
                    <g id="Clip-14"></g>
                    <path d="M-5.08430769,-5.41550769 L24.0380308,-5.41550769 L24.0380308,30.3984 L-5.08430769,30.3984 L-5.08430769,-5.41550769 Z" id="Fill-13" fill="#1A1918" mask="url(#mask-10)"></path>
                </g>
                <g id="Group-18" transform="translate(119.630769, 9.523077)">
                    <mask id="mask-12" fill="white">
                        <use xlink:href="#path-11"></use>
                    </mask>
                    <g id="Clip-17"></g>
                    <path d="M-5.19563077,-5.20172308 L40.7486769,-5.20172308 L40.7486769,35.5126154 L-5.19563077,35.5126154 L-5.19563077,-5.20172308 Z" id="Fill-16" fill="#1A1918" mask="url(#mask-12)"></path>
                </g>
                <g id="Group-21" transform="translate(333.969231, 14.507692)">
                    <mask id="mask-14" fill="white">
                        <use xlink:href="#path-13"></use>
                    </mask>
                    <g id="Clip-20"></g>
                    <path d="M-5.10978462,-5.41550769 L24.0081231,-5.41550769 L24.0081231,30.3984 L-5.10978462,30.3984 L-5.10978462,-5.41550769 Z" id="Fill-19" fill="#1A1918" mask="url(#mask-14)"></path>
                </g>
                <g id="Group-24" transform="translate(299.076923, 14.507692)">
                    <mask id="mask-16" fill="white">
                        <use xlink:href="#path-15"></use>
                    </mask>
                    <g id="Clip-23"></g>
                    <path d="M-5.5296,-5.37009231 L40.3355077,-5.37009231 L40.3355077,30.3131077 L-5.5296,30.3131077 L-5.5296,-5.37009231 Z" id="Fill-22" fill="#1A1918" mask="url(#mask-16)"></path>
                </g>
                <g id="Group-27" transform="translate(286.338462, 14.507692)">
                    <mask id="mask-18" fill="white">
                        <use xlink:href="#path-17"></use>
                    </mask>
                    <g id="Clip-26"></g>
                    <path d="M-5.3136,-5.26486154 L20.4092308,-5.26486154 L20.4092308,30.2765538 L-5.3136,30.2765538 L-5.3136,-5.26486154 Z" id="Fill-25" fill="#1A1918" mask="url(#mask-18)"></path>
                </g>
                <g id="Group-30" transform="translate(288.000000, 5.092308)">
                    <mask id="mask-20" fill="white">
                        <use xlink:href="#path-19"></use>
                    </mask>
                    <g id="Clip-29"></g>
                    <path d="M-5.2848,-5.21501538 L13.8051692,-5.21501538 L13.8051692,13.8627692 L-5.2848,13.8627692 L-5.2848,-5.21501538 Z" id="Fill-28" fill="#1A1918" mask="url(#mask-20)"></path>
                </g>
                <g id="Group-33" transform="translate(259.200000, 0.107692)">
                    <mask id="mask-22" fill="white">
                        <use xlink:href="#path-21"></use>
                    </mask>
                    <g id="Clip-32"></g>
                    <path d="M-5.27699077,-5.14262769 L33.8804862,-5.14262769 L33.8804862,45.3066646 L-5.27699077,45.3066646 L-5.27699077,-5.14262769 Z" id="Fill-31" fill="#1A1918" mask="url(#mask-22)"></path>
                </g>
                <g id="Group-36" transform="translate(353.353846, 12.846154)">
                    <mask id="mask-24" fill="white">
                        <use xlink:href="#path-23"></use>
                    </mask>
                    <g id="Clip-35"></g>
                    <path d="M-5.47753846,-5.08098462 L22.2812308,-5.08098462 L22.2812308,33.8146338 L-5.47753846,33.8146338 L-5.47753846,-5.08098462 Z" id="Fill-34" fill="#1A1918" mask="url(#mask-24)"></path>
                </g>
                <g id="Group-39" transform="translate(191.076923, 14.507692)">
                    <mask id="mask-26" fill="white">
                        <use xlink:href="#path-25"></use>
                    </mask>
                    <g id="Clip-38"></g>
                    <path d="M-5.50633846,-5.51298462 L25.5921231,-5.51298462 L25.5921231,30.4260923 L-5.50633846,30.4260923 L-5.50633846,-5.51298462 Z" id="Fill-37" fill="#1A1918" mask="url(#mask-26)"></path>
                </g>
                <g id="Group-42" transform="translate(211.015385, 14.507692)">
                    <mask id="mask-28" fill="white">
                        <use xlink:href="#path-27"></use>
                    </mask>
                    <g id="Clip-41"></g>
                    <path d="M-5.1696,-5.39667692 L24.21576,-5.39667692 L24.21576,30.3308308 L-5.1696,30.3308308 L-5.1696,-5.39667692 Z" id="Fill-40" fill="#1A1918" mask="url(#mask-28)"></path>
                </g>
                <g id="Group-45" transform="translate(237.046154, 13.953846)">
                    <mask id="mask-30" fill="white">
                        <use xlink:href="#path-29"></use>
                    </mask>
                    <g id="Clip-44"></g>
                    <path d="M-5.36566154,-5.18621538 L21.6077538,-5.18621538 L21.6077538,30.8304 L-5.36566154,30.8304 L-5.36566154,-5.18621538 Z" id="Fill-43" fill="#1A1918" mask="url(#mask-30)"></path>
                </g>
                <g id="Group-48" transform="translate(228.184615, 1.769231)">
                    <mask id="mask-32" fill="white">
                        <use xlink:href="#path-31"></use>
                    </mask>
                    <g id="Clip-47"></g>
                    <path d="M-5.34683077,-5.40553846 L18.1860923,-5.40553846 L18.1860923,43.0914462 L-5.34683077,43.0914462 L-5.34683077,-5.40553846 Z" id="Fill-46" fill="#1A1918" mask="url(#mask-32)"></path>
                </g>
                <g id="Group-51" transform="translate(160.615385, 3.430769)">
                    <mask id="mask-34" fill="white">
                        <use xlink:href="#path-33"></use>
                    </mask>
                    <g id="Clip-50"></g>
                    <path d="M-5.25029538,-5.47864615 L35.1714462,-5.47864615 L35.1714462,54.5361231 L-5.25029538,54.5361231 L-5.25029538,-5.47864615 Z" id="Fill-49" fill="#1A1918" mask="url(#mask-34)"></path>
                </g>
            </g>
            <g id="-" transform="translate(78.000000, 0.000000)">
                <g id="Group-57" transform="translate(0.769231, 0.000000)">
                    <mask id="mask-36" fill="white">
                        <use xlink:href="#path-35"></use>
                    </mask>
                    <g id="Clip-56"></g>
                    <path d="M-5.42104615,-5.06326154 L23.0233846,-5.06326154 L23.0233846,22.5769846 L-5.42104615,22.5769846 L-5.42104615,-5.06326154 Z" id="Fill-55" fill="#010503" mask="url(#mask-36)"></path>
                </g>
                <g id="Group-60" transform="translate(19.046154, 0.000000)">
                    <mask id="mask-38" fill="white">
                        <use xlink:href="#path-37"></use>
                    </mask>
                    <g id="Clip-59"></g>
                    <path d="M-5.01895385,-5.06326154 L22.6390154,-5.06326154 L22.6390154,22.9713231 L-5.01895385,22.9713231 L-5.01895385,-5.06326154 Z" id="Fill-58" fill="#010503" mask="url(#mask-38)"></path>
                </g>
                <g id="Group-63" transform="translate(38.984615, 0.000000)">
                    <mask id="mask-40" fill="white">
                        <use xlink:href="#path-39"></use>
                    </mask>
                    <g id="Clip-62"></g>
                    <path d="M-5.23052308,-5.06326154 L22.6146462,-5.06326154 L22.6146462,23.1374769 L-5.23052308,23.1374769 L-5.23052308,-5.06326154 Z" id="Fill-61" fill="#010503" mask="url(#mask-40)"></path>
                </g>
                <g id="Group-66" transform="translate(56.707692, 0.553846)">
                    <mask id="mask-42" fill="white">
                        <use xlink:href="#path-41"></use>
                    </mask>
                    <g id="Clip-65"></g>
                    <path d="M-5.26596923,-5.52295385 L23.2338462,-5.52295385 L23.2338462,22.7907692 L-5.26596923,22.7907692 L-5.26596923,-5.52295385 Z" id="Fill-64" fill="#010503" mask="url(#mask-42)"></path>
                </g>
                <g id="Group-69" transform="translate(77.200000, 0.000000)">
                    <mask id="mask-44" fill="white">
                        <use xlink:href="#path-43"></use>
                    </mask>
                    <g id="Clip-68"></g>
                    <path d="M-5.43323077,-5.06326154 L20.8589538,-5.06326154 L20.8589538,23.3446154 L-5.43323077,23.3446154 L-5.43323077,-5.06326154 Z" id="Fill-67" fill="#010503" mask="url(#mask-44)"></path>
                </g>
                <g id="Group-72" transform="translate(93.815385, 0.553846)">
                    <mask id="mask-46" fill="white">
                        <use xlink:href="#path-45"></use>
                    </mask>
                    <g id="Clip-71"></g>
                    <path d="M-5.22276923,-5.31692308 L23.0544,-5.31692308 L23.0544,22.7165538 L-5.22276923,22.7165538 L-5.22276923,-5.31692308 Z" id="Fill-70" fill="#010503" mask="url(#mask-46)"></path>
                </g>
                <g id="Group-75" transform="translate(113.753846, 0.553846)">
                    <mask id="mask-48" fill="white">
                        <use xlink:href="#path-47"></use>
                    </mask>
                    <g id="Clip-74"></g>
                    <path d="M-5.39667692,-5.39224615 L21.4194462,-5.39224615 L21.4194462,22.7353846 L-5.39667692,22.7353846 L-5.39667692,-5.39224615 Z" id="Fill-73" fill="#010503" mask="url(#mask-48)"></path>
                </g>
                <g id="Group-78" transform="translate(141.446154, 0.553846)">
                    <mask id="mask-50" fill="white">
                        <use xlink:href="#path-49"></use>
                    </mask>
                    <g id="Clip-77"></g>
                    <path d="M-5.1264,-5.44763077 L22.0630154,-5.44763077 L22.0630154,22.6966154 L-5.1264,22.6966154 L-5.1264,-5.44763077 Z" id="Fill-76" fill="#010503" mask="url(#mask-50)"></path>
                </g>
                <g id="Group-81" transform="translate(160.830769, 0.553846)">
                    <mask id="mask-52" fill="white">
                        <use xlink:href="#path-51"></use>
                    </mask>
                    <g id="Clip-80"></g>
                    <path d="M-5.53292308,-5.44763077 L21.9954462,-5.44763077 L21.9954462,22.5836308 L-5.53292308,22.5836308 L-5.53292308,-5.44763077 Z" id="Fill-79" fill="#010503" mask="url(#mask-52)"></path>
                </g>
                <g id="Group-84" transform="translate(179.107692, 0.000000)">
                    <mask id="mask-54" fill="white">
                        <use xlink:href="#path-53"></use>
                    </mask>
                    <g id="Clip-83"></g>
                    <path d="M-5.50523077,-5.25046154 L22.9403077,-5.25046154 L22.9403077,23.5318154 L-5.50523077,23.5318154 L-5.50523077,-5.25046154 Z" id="Fill-82" fill="#010503" mask="url(#mask-54)"></path>
                </g>
                <g id="Group-87" transform="translate(196.830769, 0.000000)">
                    <mask id="mask-56" fill="white">
                        <use xlink:href="#path-55"></use>
                    </mask>
                    <g id="Clip-86"></g>
                    <path d="M-5.03556923,-5.09981538 L23.1086769,-5.09981538 L23.1086769,23.3069538 L-5.03556923,23.3069538 L-5.03556923,-5.09981538 Z" id="Fill-85" fill="#010503" mask="url(#mask-56)"></path>
                </g>
            </g>
            <path d="M0,27.5538462 L371.076923,27.5538462" id="Line" stroke="#CBCBCB" stroke-linecap="square"></path>
            <text id="Beta" font-family="ArialMT, Arial" font-size="9" font-weight="normal" fill="#DBDBDB">
                <tspan x="351.24292" y="18">Beta</tspan>
            </text>
        </g>
    </g>
</svg>