<?xml version="1.0" encoding="UTF-8" standalone="no"?>
<svg width="330px" height="60px" viewBox="0 0 330 60" version="1.1" xmlns="http://www.w3.org/2000/svg" xmlns:xlink="http://www.w3.org/1999/xlink">
    <!-- Generator: Sketch 3.7.2 (28276) - http://www.bohemiancoding.com/sketch -->
    <title>Group 5</title>
    <desc>Created with Sketch.</desc>
    <defs></defs>
    <g id="Page-1" stroke="none" stroke-width="1" fill="none" fill-rule="evenodd">
        <g id="Group-5">
            <rect id="Rectangle-1" fill="#E0DFDF" x="0" y="0" width="330" height="60" rx="8"></rect>
            <g id="Group-3" transform="translate(80.000000, 12.000000)" fill="#4B4B4B">
                <g id="Group-2">
                    <text id="iPhone-版" font-family="PingFangSC-Medium, PingFang SC" font-size="26" font-weight="400">
                        <tspan x="59.155" y="28">iPhone 版</tspan>
                    </text>
                    <g id="apple_logo" transform="translate(0.000000, 4.000000)">
                        <path d="M20.0005602,15.4955815 C20.0418906,19.9094908 23.9051028,21.3783287 23.9479037,21.3970779 C23.9152385,21.5006669 23.3306259,23.4903138 21.9125776,25.5454787 C20.6867396,27.3222711 19.414477,29.0925534 17.4102932,29.1292183 C15.4409803,29.1652063 14.8077375,27.9710951 12.5562538,27.9710951 C10.305453,27.9710951 9.6018906,29.0925534 7.73771554,29.1652063 C5.80316849,29.237807 4.33003063,27.2438373 3.09400438,25.473555 C0.568332604,21.8523692 -1.36180306,15.240958 1.22988184,10.7781446 C2.51737418,8.56189351 4.8182232,7.15846919 7.31558862,7.12248128 C9.21526478,7.08654545 11.0083326,8.38992234 12.169628,8.38992234 C13.3301882,8.38992234 15.5091466,6.82249524 17.7998075,7.05269287 C18.7587571,7.09227436 21.4505383,7.43684167 23.1790109,9.94589165 C23.0397375,10.0315127 19.9671597,11.8053885 20.0005602,15.4955815 M16.299466,4.65697094 C17.3265295,3.42405952 18.017803,1.70773309 17.8292166,0 C16.3487789,0.0590076727 14.5585996,0.978339921 13.4967177,2.21057428 C12.5450678,3.30177354 11.7116324,5.0483069 11.9365077,6.72223948 C13.5866258,6.84884817 15.2723501,5.89066357 16.299466,4.65697094" id="Shape"></path>
                    </g>
                </g>
            </g>
        </g>
    </g>
</svg>